<svg width="14" height="18" viewBox="0 0 14 18" fill="none" xmlns="http://www.w3.org/2000/svg"><path d="M13.6776 11.241L12.7676 9.747C12.5764 9.414 12.4035 8.784 12.4035 8.415V6.138C12.4035 4.023 11.1476 2.196 9.33664 1.341C8.86341 0.513 7.98975 0 6.98869 0C5.99673 0 5.10487 0.531 4.63164 1.368C2.85703 2.241 1.62845 4.05 1.62845 6.138V8.415C1.62845 8.784 1.45554 9.414 1.26443 9.738L0.345272 11.241C-0.0187507 11.844 -0.100656 12.51 0.126858 13.122C0.345272 13.725 0.864005 14.193 1.53745 14.418C3.30296 15.012 5.15947 15.3 7.01599 15.3C8.87251 15.3 10.729 15.012 12.4945 14.427C13.1316 14.22 13.623 13.743 13.8596 13.122C14.0962 12.501 14.0325 11.817 13.6776 11.241Z" fill="currentColor"/><path d="M9.57325 16.209C9.19103 17.253 8.18086 18 6.99779 18C6.27884 18 5.569 17.712 5.06847 17.199C4.77725 16.929 4.55884 16.569 4.43143 16.2C4.54974 16.218 4.66804 16.227 4.79545 16.245C5.00476 16.272 5.22318 16.299 5.44159 16.317C5.96032 16.362 6.48816 16.389 7.01599 16.389C7.53472 16.389 8.05346 16.362 8.56309 16.317C8.7542 16.299 8.94531 16.29 9.12732 16.263C9.27293 16.245 9.41854 16.227 9.57325 16.209Z" fill="currentColor"/></svg>