<svg width="29" height="30" viewBox="0 0 29 30" fill="none" xmlns="http://www.w3.org/2000/svg"><path d="M6.7715 18.41H2.9C1.305 18.41 0 19.7139 0 21.3075V28.5512C0 29.3481 0.6525 30 1.45 30H6.7715C7.569 30 8.2215 29.3481 8.2215 28.5512V19.8587C8.2215 19.0619 7.569 18.41 6.7715 18.41Z" fill="currentColor"/><path d="M16.4285 12.615H12.557C10.962 12.615 9.657 13.9189 9.657 15.5125V28.5512C9.657 29.3481 10.3095 30 11.107 30H17.8785C18.676 30 19.3285 29.3481 19.3285 28.5512V15.5125C19.3285 13.9189 18.038 12.615 16.4285 12.615Z" fill="currentColor"/><path d="M26.1 22.7562H22.2285C21.431 22.7562 20.7785 23.4082 20.7785 24.205V28.5512C20.7785 29.3481 21.431 30 22.2285 30H27.55C28.3475 30 29 29.3481 29 28.5512V25.6537C29 24.0601 27.695 22.7562 26.1 22.7562Z" fill="currentColor"/><path d="M18.8645 5.15393C19.314 4.70482 19.488 4.16878 19.343 3.70518C19.198 3.24158 18.7485 2.90837 18.1105 2.80695L16.7185 2.57515C16.6605 2.57515 16.53 2.47374 16.501 2.41579L15.7325 0.880116C15.1525 -0.293372 13.833 -0.293372 13.253 0.880116L12.4845 2.41579C12.47 2.47374 12.3395 2.57515 12.2815 2.57515L10.8895 2.80695C10.2515 2.90837 9.8165 3.24158 9.657 3.70518C9.512 4.16878 9.686 4.70482 10.1355 5.15393L11.2085 6.24049C11.2665 6.28395 11.31 6.4578 11.2955 6.51575L10.991 7.84861C10.759 8.84824 11.136 9.29736 11.3825 9.47121C11.629 9.64506 12.1655 9.87686 13.05 9.35531L14.355 8.58747C14.413 8.54401 14.6015 8.54401 14.6595 8.58747L15.95 9.35531C16.356 9.60159 16.6895 9.67403 16.9505 9.67403C17.255 9.67403 17.4725 9.55813 17.603 9.47121C17.8495 9.29736 18.2265 8.84824 17.9945 7.84861L17.69 6.51575C17.6755 6.44332 17.719 6.28395 17.777 6.24049L18.8645 5.15393Z" fill="currentColor"/></svg>