<svg width="14" height="15" viewBox="0 0 14 15" fill="none" xmlns="http://www.w3.org/2000/svg"><path d="M2.94134 8.20416L2.93497 11.2532C2.93497 12.0789 3.55926 12.9631 4.32369 13.2231L6.35581 13.9122C6.70617 14.0293 7.28587 14.0293 7.6426 13.9122L9.67472 13.2231C10.4392 12.9631 11.0634 12.0789 11.0634 11.2532V8.23667M12.9873 9.4524V5.55167M5.757 1.34538L1.9221 3.90036C0.692634 4.71951 0.692634 6.55286 1.9221 7.37201L5.757 9.92699C6.44499 10.3886 7.5789 10.3886 8.26689 9.92699L12.0827 7.37201C13.3058 6.55286 13.3058 4.72601 12.0827 3.90686L8.26689 1.35188C7.5789 0.883795 6.44499 0.883795 5.757 1.34538Z" stroke="currentColor" stroke-linecap="round" stroke-linejoin="round"/></svg>