<svg width="14" height="8" viewBox="0 0 14 8" fill="none" xmlns="http://www.w3.org/2000/svg"><path d="M10.2231 0C9.15911 0 7.88978 0.385185 7.88978 2.22222V5.77778C7.88978 7.61482 9.15911 8 10.2231 8C11.2871 8 12.5564 7.61482 12.5564 5.77778V2.22222C12.5564 0.385185 11.2871 0 10.2231 0Z" fill="currentColor"/><path d="M3.77689 0C2.71289 0 1.44356 0.385185 1.44356 2.22222V5.77778C1.44356 7.61482 2.71289 8 3.77689 8C4.84089 8 6.11022 7.61482 6.11022 5.77778V2.22222C6.11022 0.385185 4.84089 0 3.77689 0Z" fill="currentColor"/><path d="M7.88978 3.55556H6.11022V4.44444H7.88978V3.55556Z" fill="currentColor"/><path d="M13.5333 5.92593C13.2782 5.92593 13.0667 5.72444 13.0667 5.48148V2.51852C13.0667 2.27556 13.2782 2.07407 13.5333 2.07407C13.7884 2.07407 14 2.27556 14 2.51852V5.48148C14 5.72444 13.7884 5.92593 13.5333 5.92593Z" fill="currentColor"/><path d="M0.466667 5.92593C0.211556 5.92593 0 5.72444 0 5.48148V2.51852C0 2.27556 0.211556 2.07407 0.466667 2.07407C0.721778 2.07407 0.933333 2.27556 0.933333 2.51852V5.48148C0.933333 5.72444 0.721778 5.92593 0.466667 5.92593Z" fill="currentColor"/></svg>