<svg width="12" height="12" viewBox="0 0 12 12" fill="none" xmlns="http://www.w3.org/2000/svg"><path d="M11.7337 5.24419L10.9177 4.29643C10.7617 4.11647 10.6357 3.78056 10.6357 3.54062V2.52087C10.6357 1.88503 10.1136 1.36316 9.47759 1.36316H8.45753C8.22351 1.36316 7.88149 1.23719 7.70148 1.08123L6.75342 0.265434C6.33939 -0.0884779 5.66135 -0.0884779 5.24133 0.265434L4.29927 1.08723C4.11926 1.23719 3.77723 1.36316 3.54322 1.36316H2.50516C1.86912 1.36316 1.34708 1.88503 1.34708 2.52087V3.54661C1.34708 3.78056 1.22108 4.11647 1.07107 4.29643L0.261016 5.25019C-0.0870054 5.66408 -0.0870054 6.33592 0.261016 6.74981L1.07107 7.70357C1.22108 7.88353 1.34708 8.21945 1.34708 8.45339V9.47913C1.34708 10.115 1.86912 10.6368 2.50516 10.6368H3.54322C3.77723 10.6368 4.11926 10.7628 4.29927 10.9188L5.24733 11.7346C5.66135 12.0885 6.33939 12.0885 6.75942 11.7346L7.70748 10.9188C7.88749 10.7628 8.22351 10.6368 8.46353 10.6368H9.48359C10.1196 10.6368 10.6417 10.115 10.6417 9.47913V8.45939C10.6417 8.22544 10.7677 7.88353 10.9237 7.70357L11.7397 6.75581C12.0878 6.34191 12.0878 5.65809 11.7337 5.24419ZM8.49353 4.86628L5.59535 7.76356C5.51134 7.84754 5.39734 7.89553 5.27733 7.89553C5.15732 7.89553 5.04331 7.84754 4.95931 7.76356L3.50722 6.31192C3.33321 6.13797 3.33321 5.85004 3.50722 5.67608C3.68123 5.50212 3.96925 5.50212 4.14326 5.67608L5.27733 6.8098L7.85749 4.23044C8.0315 4.05649 8.31952 4.05649 8.49353 4.23044C8.66754 4.4044 8.66754 4.69233 8.49353 4.86628Z" fill="currentColor"/></svg>