<svg width="18" height="18" viewBox="0 0 18 18" fill="none" xmlns="http://www.w3.org/2000/svg"><path fill-rule="evenodd" clip-rule="evenodd" d="M11.0499 0.709047L16.2288 4.33646C17.2178 5.02953 18 6.5237 18 7.73884V13.8415C18 16.1368 16.1389 18 13.8462 18H4.15385C1.86114 18 0 16.1278 0 13.8325V7.62183C0 6.4877 0.71029 5.04754 1.60939 4.34546L6.11389 0.82606C7.47153 -0.227059 9.63836 -0.281065 11.0499 0.709047ZM9.00001 12.5992C9.99313 12.5992 10.7982 11.7932 10.7982 10.799C10.7982 9.8048 9.99313 8.99882 9.00001 8.99882C8.00689 8.99882 7.20181 9.8048 7.20181 10.799C7.20181 11.7932 8.00689 12.5992 9.00001 12.5992Z" fill="currentColor"/></svg>