<svg width="26" height="30" viewBox="0 0 26 30" fill="none" xmlns="http://www.w3.org/2000/svg"><path d="M24.7034 10.4423C23.7185 9.33242 22.2336 8.6875 20.1754 8.46252V7.32266C20.1754 5.2679 19.3227 3.28813 17.8232 1.90829C16.309 0.498454 14.339 -0.161468 12.2955 0.0335087C8.78186 0.378468 5.82688 3.84306 5.82688 7.59262V8.46252C3.76869 8.6875 2.28385 9.33242 1.29886 10.4423C-0.127173 12.0621 -0.0830689 14.2218 0.0786462 15.7217L1.10774 24.0757C1.41647 27.0004 2.57788 30 8.89947 30H17.1028C23.4244 30 24.5858 27.0004 24.8946 24.0907L25.9237 15.7067C26.0854 14.2218 26.1148 12.0621 24.7034 10.4423ZM12.5013 2.11826C13.9714 1.98328 15.3681 2.44823 16.456 3.45311C17.5292 4.44299 18.1319 5.85283 18.1319 7.32266V8.37253H7.87037V7.59262C7.87037 4.92294 10.0315 2.35824 12.5013 2.11826ZM7.73806 16.7266H7.72336C6.91478 16.7266 6.25322 16.0516 6.25322 15.2267C6.25322 14.4018 6.91478 13.7269 7.72336 13.7269C8.54664 13.7269 9.2082 14.4018 9.2082 15.2267C9.2082 16.0516 8.54664 16.7266 7.73806 16.7266ZM18.029 16.7266H18.0143C17.2057 16.7266 16.5442 16.0516 16.5442 15.2267C16.5442 14.4018 17.2057 13.7269 18.0143 13.7269C18.8376 13.7269 19.4992 14.4018 19.4992 15.2267C19.4992 16.0516 18.8376 16.7266 18.029 16.7266Z" fill="currentColor"/></svg>