<svg width="43" height="46" viewBox="0 0 43 46" fill="none" xmlns="http://www.w3.org/2000/svg"><circle cx="21" cy="25" r="20.5" stroke="currentColor"/><path d="M25.144 20C23.776 20 22.144 20.4815 22.144 22.7778V27.2222C22.144 29.5185 23.776 30 25.144 30C26.512 30 28.144 29.5185 28.144 27.2222V22.7778C28.144 20.4815 26.512 20 25.144 20Z" fill="currentColor"/><path d="M16.856 20C15.488 20 13.856 20.4815 13.856 22.7778V27.2222C13.856 29.5185 15.488 30 16.856 30C18.224 30 19.856 29.5185 19.856 27.2222V22.7778C19.856 20.4815 18.224 20 16.856 20Z" fill="currentColor"/><path d="M22.144 24.4444H19.856V25.5556H22.144V24.4444Z" fill="currentColor"/><path d="M29.4 27.4074C29.072 27.4074 28.8 27.1556 28.8 26.8519V23.1481C28.8 22.8444 29.072 22.5926 29.4 22.5926C29.728 22.5926 30 22.8444 30 23.1481V26.8519C30 27.1556 29.728 27.4074 29.4 27.4074Z" fill="currentColor"/><path d="M12.6 27.4074C12.272 27.4074 12 27.1556 12 26.8519V23.1481C12 22.8444 12.272 22.5926 12.6 22.5926C12.928 22.5926 13.2 22.8444 13.2 23.1481V26.8519C13.2 27.1556 12.928 27.4074 12.6 27.4074Z" fill="currentColor"/><path d="M42 9C42 13.4183 38.4183 17 34 17C29.5817 17 26 13.4183 26 9C26 4.58172 29.5817 1 34 1C37.4117 1 40.3245 3.13558 41.4747 6.14286C41.8141 7.03017 42 7.99337 42 9Z" fill="white"/><path d="M41.4747 6.14286L41.0077 6.32147V6.32147L41.4747 6.14286ZM34.5001 6.00001C34.5001 5.72387 34.2762 5.50001 34.0001 5.5C33.7239 5.49999 33.5001 5.72385 33.5001 5.99999L34.5001 6.00001ZM33.5001 12C33.5001 12.2762 33.7239 12.5 34.0001 12.5C34.2762 12.5 34.5001 12.2761 34.5001 12L33.5001 12ZM37 9.5C37.2761 9.5 37.5 9.27614 37.5 9C37.5 8.72386 37.2761 8.5 37 8.5V9.5ZM31 8.5C30.7239 8.5 30.5 8.72386 30.5 9C30.5 9.27614 30.7239 9.5 31 9.5V8.5ZM41.5 9C41.5 13.1421 38.1421 16.5 34 16.5V17.5C38.6944 17.5 42.5 13.6944 42.5 9H41.5ZM34 16.5C29.8579 16.5 26.5 13.1421 26.5 9H25.5C25.5 13.6944 29.3056 17.5 34 17.5V16.5ZM26.5 9C26.5 4.85786 29.8579 1.5 34 1.5V0.5C29.3056 0.5 25.5 4.30558 25.5 9H26.5ZM34 1.5C37.1976 1.5 39.9291 3.50133 41.0077 6.32147L41.9417 5.96424C40.7199 2.76983 37.6257 0.5 34 0.5V1.5ZM41.0077 6.32147C41.3256 7.15266 41.5 8.05538 41.5 9H42.5C42.5 7.93137 42.3026 6.90769 41.9417 5.96424L41.0077 6.32147ZM33.5001 5.99999L33.5 8.99999L34.5 9.00001L34.5001 6.00001L33.5001 5.99999ZM33.5 9.00001L33.5001 12L34.5001 12L34.5 8.99999L33.5 9.00001ZM34 9.5H37V8.5H34V9.5ZM34 8.5H31V9.5H34V8.5Z" fill="currentColor"/></svg>