<svg width="14" height="14" viewBox="0 0 14 14" fill="none" xmlns="http://www.w3.org/2000/svg"><path d="M4.82357 6.994L6.26902 8.44564L9.16594 5.54236M6.24503 1.26543C6.65888 0.911522 7.33662 0.911522 7.75647 1.26543L8.70411 2.08123C8.88404 2.23719 9.21992 2.36316 9.45983 2.36316H10.4794C11.1152 2.36316 11.637 2.88503 11.637 3.52087V4.54061C11.637 4.77456 11.763 5.11647 11.9189 5.29643L12.7346 6.24419C13.0885 6.65809 13.0885 7.33592 12.7346 7.75581L11.9189 8.70357C11.763 8.88353 11.637 9.21945 11.637 9.45939V10.4791C11.637 11.115 11.1152 11.6368 10.4794 11.6368H9.45983C9.22592 11.6368 8.88404 11.7628 8.70411 11.9188L7.75647 12.7346C7.34262 13.0885 6.66488 13.0885 6.24503 12.7346L5.29739 11.9188C5.11746 11.7628 4.78158 11.6368 4.54167 11.6368H3.50406C2.8683 11.6368 2.34649 11.115 2.34649 10.4791V9.45339C2.34649 9.21945 2.22054 8.88353 2.0706 8.70357L1.2609 7.74981C0.913033 7.33592 0.913033 6.66408 1.2609 6.25019L2.0706 5.29643C2.22054 5.11647 2.34649 4.78055 2.34649 4.54661V3.51487C2.34649 2.87903 2.8683 2.35716 3.50406 2.35716H4.54167C4.77558 2.35716 5.11746 2.23119 5.29739 2.07523L6.24503 1.26543Z" stroke="currentColor" stroke-linecap="round" stroke-linejoin="round"/></svg>