<svg width="30" height="30" viewBox="0 0 30 30" fill="none" xmlns="http://www.w3.org/2000/svg"><path d="M21.2956 0H8.71935C3.25662 0 0 3.255 0 8.715V21.27C0 26.745 3.25662 30 8.71935 30H21.2806C26.7433 30 29.9999 26.745 29.9999 21.285V8.715C30.015 3.255 26.7583 0 21.2956 0ZM21.0105 16.125H16.133V21C16.133 21.615 15.6228 22.125 15.0075 22.125C14.3922 22.125 13.8819 21.615 13.8819 21V16.125H9.00449C8.38918 16.125 7.87893 15.615 7.87893 15C7.87893 14.385 8.38918 13.875 9.00449 13.875H13.8819V9C13.8819 8.385 14.3922 7.875 15.0075 7.875C15.6228 7.875 16.133 8.385 16.133 9V13.875H21.0105C21.6258 13.875 22.136 14.385 22.136 15C22.136 15.615 21.6258 16.125 21.0105 16.125Z" fill="currentColor"/></svg>