<svg width="30" height="26" viewBox="0 0 30 26" fill="none" xmlns="http://www.w3.org/2000/svg"><path d="M30 3.16339V20.4964C30 21.9105 28.8156 23.2079 27.3613 23.3828L26.8966 23.4412C24.4378 23.7619 20.9745 24.7532 18.1859 25.8902C17.2114 26.2838 16.1319 25.5695 16.1319 24.5345V4.25673C16.1319 3.71735 16.4468 3.2217 16.9415 2.9593C19.6852 1.51609 23.8381 0.233245 26.6567 0H26.7466C28.5457 0 30 1.41405 30 3.16339Z" fill="currentColor"/><path d="M13.0735 2.9593C10.3298 1.51609 6.17691 0.233245 3.35832 0H3.25337C1.45427 0 0 1.41405 0 3.16339V20.4964C0 21.9105 1.18441 23.2079 2.63868 23.3828L3.10345 23.4412C5.56222 23.7619 9.02549 24.7532 11.8141 25.8902C12.7886 26.2838 13.8681 25.5695 13.8681 24.5345V4.25673C13.8681 3.70277 13.5682 3.2217 13.0735 2.9593ZM4.51274 7.37638H7.88606C8.50075 7.37638 9.0105 7.87203 9.0105 8.46972C9.0105 9.08199 8.50075 9.56306 7.88606 9.56306H4.51274C3.89805 9.56306 3.38831 9.08199 3.38831 8.46972C3.38831 7.87203 3.89805 7.37638 4.51274 7.37638ZM9.0105 13.9364H4.51274C3.89805 13.9364 3.38831 13.4553 3.38831 12.8431C3.38831 12.2454 3.89805 11.7497 4.51274 11.7497H9.0105C9.62519 11.7497 10.1349 12.2454 10.1349 12.8431C10.1349 13.4553 9.62519 13.9364 9.0105 13.9364Z" fill="currentColor"/></svg>