<svg width="106" height="24" viewBox="0 0 106 24" fill="none" xmlns="http://www.w3.org/2000/svg"><path d="M93.1269 12.0691C93.1269 9.12539 90.9406 6.74414 87.8526 6.74414C84.8257 6.74414 82.6704 9.03389 82.6704 12.1801C82.6704 15.3421 84.8868 17.6476 88.0668 17.6476C90.0845 17.6476 91.7813 16.7281 92.8361 14.8591L90.6962 13.8466C90.192 14.7811 89.0908 15.3886 88.0668 15.3886C86.7676 15.3886 85.2696 14.3919 85.1776 13.0059H93.0503C93.1005 12.6962 93.1261 12.383 93.1269 12.0691ZM85.2232 11.1691C85.4073 9.76739 86.3547 8.84864 87.8681 8.84864C89.3661 8.84864 90.2833 9.74864 90.4055 11.1691H85.2232Z" fill="black"/><path d="M63.6579 6.7417C60.5545 6.7417 58.3535 9.01645 58.3535 12.2249C58.3535 15.4019 60.5545 17.6452 63.6889 17.6452C66.8379 17.6452 69.0389 15.4019 69.0389 12.2714C69.0389 9.0472 66.7768 6.7417 63.6579 6.7417ZM63.6889 15.2617C62.129 15.2617 61.1662 14.0782 61.1662 12.2399C61.1662 10.3709 62.1445 9.0937 63.6889 9.0937C65.2479 9.0937 66.2262 10.3552 66.2262 12.2399C66.2262 14.0939 65.2634 15.2617 63.6889 15.2617Z" fill="black"/><path d="M52.6076 6.74481C51.3363 6.74481 50.3786 7.18731 49.421 8.28456H49.1066C48.4633 7.29381 47.4136 6.74481 46.2358 6.74481C45.6478 6.73895 45.0668 6.87549 44.5406 7.14319C44.0145 7.41088 43.5583 7.80208 43.2097 8.28456H42.8953L42.8799 8.26956V6.95856H40.249V17.4166H43.0919V12.0346C43.0919 10.2968 43.8103 9.27531 45.0521 9.27531C46.2042 9.27531 46.9521 10.1446 46.9521 11.4706V17.4166H49.8096V12.0346C49.8096 10.3096 50.5281 9.27531 51.7854 9.27531C52.9219 9.27531 53.6551 10.1446 53.6551 11.4863V17.4166H56.5134V11.1353C56.5134 8.40681 55.0765 6.74481 52.6076 6.74481Z" fill="black"/><path d="M99.4489 13.7893H99.2457C99.2457 13.6033 98.0061 10.2913 97.1934 8.2393L96.6855 6.95605H93.8213L97.8846 17.4508L96.2836 21.4498H99.1279L104.979 6.9598H102.114L101.646 8.05705L100.061 12.0523C99.6145 13.1683 99.4312 13.6858 99.4489 13.7893Z" fill="black"/><path d="M76.9237 6.74463C75.6517 6.74463 74.5593 7.30863 73.8261 8.31513H73.5265L73.4971 8.30013V6.95838H70.8647V17.4164H73.7076V12.0651C73.7076 10.3581 74.5173 9.29013 75.8475 9.29013C77.0893 9.29013 78.0021 10.2351 78.0021 11.7291V17.4156H80.8449V11.1051C80.8449 8.54388 79.199 6.74463 76.9237 6.74463Z" fill="black"/><path d="M20.9415 0.75C14.7994 0.75 9.86377 5.8125 9.86377 12C9.86377 18.2385 14.848 23.25 20.94 23.25C27.0321 23.25 32.0207 18.1875 32.0207 12C32.0207 5.8125 27.0336 0.75 20.9415 0.75ZM20.9415 16.1933C18.6758 16.1933 16.8134 14.301 16.8134 12C16.8134 9.699 18.6758 7.80675 20.9415 7.80675C23.2073 7.80675 25.0704 9.699 25.0704 12C25.0196 14.301 23.2073 16.1933 20.9415 16.1933Z" fill="#8B3FFD"/><path d="M9.86375 4.01855V20.3821H5.93881L0.903809 4.01855H9.86375Z" fill="#8B3FFD"/></svg>