<svg width="187" height="70" viewBox="0 0 187 70" fill="none" xmlns="http://www.w3.org/2000/svg"><path d="M0 69.5541H8.98878V56.4437H20.0792V50.7135H8.98878V43.3779H21.725V37.0903H0V69.5541Z" fill="#181818"/><path d="M24.9842 69.5541H33.973V57.9599H39.898C43.2403 57.9599 46.0003 56.964 48.1778 54.9721C50.3554 52.9803 51.4442 50.4236 51.4442 47.3021C51.4442 44.2549 50.4145 41.7949 48.3551 39.922C46.3125 38.0342 43.5273 37.0903 39.9993 37.0903H24.9842V69.5541ZM33.973 52.8317V42.6867H37.8471C39.5182 42.7016 40.683 43.1847 41.3413 44.136C42.0165 45.0725 42.3541 46.2839 42.3541 47.7703C42.3541 49.2568 42.0165 50.4757 41.3413 51.427C40.683 52.3634 39.5182 52.8317 37.8471 52.8317H33.973ZM43.1644 69.5541H52.9381L44.3797 53.3891L36.5051 55.4627L43.1644 69.5541Z" fill="#181818"/><path d="M55.6656 69.5541H64.781V37.0903H55.6656V69.5541Z" fill="#181818"/><path d="M70.0406 69.5541H94.1204V63.4671H78.6495V55.864H91.5123V50.3344H78.6495V43.3779H93.7406V37.0903H70.0406V69.5541Z" fill="#181818"/><path d="M97.253 69.5541H104.874V51.6722C104.874 51.152 104.874 50.6615 104.874 50.2007C104.874 49.725 104.849 49.2345 104.799 48.7291H104.95C105.085 49.2048 105.254 49.7027 105.457 50.223C105.659 50.7432 105.87 51.2263 106.09 51.6722L115.61 69.5541H124.346V37.0903H116.724V54.7046C116.724 55.21 116.716 55.7376 116.699 56.2876C116.699 56.8376 116.716 57.3653 116.75 57.8707H116.623C116.488 57.395 116.311 56.8748 116.091 56.3099C115.889 55.7451 115.678 55.2248 115.458 54.7492L106.267 37.0903H97.253V69.5541Z" fill="#181818"/><path d="M129.428 69.5541H142.392C147.136 69.5541 150.799 68.1865 153.381 65.4515C155.964 62.7165 157.256 58.9409 157.256 54.1249V52.3857C157.256 47.5548 155.956 43.8016 153.356 41.126C150.773 38.4355 147.119 37.0903 142.392 37.0903H129.428V69.5541ZM138.164 64.0691V42.7759H141.456C143.566 42.7908 145.211 43.4894 146.393 44.8718C147.592 46.2542 148.191 48.4318 148.191 51.4047V55.2843C148.191 58.2126 147.608 60.4125 146.444 61.8841C145.296 63.3408 143.633 64.0691 141.456 64.0691H138.164Z" fill="#181818"/><path d="M160.54 60.9253C160.54 63.913 161.798 66.1724 164.313 67.7035C166.828 69.2345 170.035 70 173.935 70C177.834 70 180.982 69.1379 183.379 67.4136C185.793 65.6745 187 63.2887 187 60.2564C187 57.5362 186.181 55.3437 184.544 53.6789C182.907 51.9993 180.265 50.6615 176.619 49.6656C173.85 48.8926 171.943 48.2014 170.896 47.592C169.866 46.9825 169.352 46.2245 169.352 45.3177C169.352 44.3515 169.689 43.5637 170.364 42.9543C171.057 42.3448 172.179 42.0401 173.732 42.0401C175.167 42.0401 176.264 42.3894 177.024 43.0881C177.8 43.7718 178.188 44.738 178.188 45.9866V46.8339H186.215V45.3623C186.215 42.5678 185.042 40.4199 182.696 38.9186C180.366 37.4173 177.319 36.6667 173.555 36.6667C169.74 36.6667 166.693 37.4991 164.414 39.1639C162.135 40.8287 160.996 43.1029 160.996 45.9866C160.996 48.5284 161.848 50.6243 163.553 52.2742C165.258 53.9242 168.018 55.3066 171.833 56.4214C174.449 57.1944 176.239 57.9078 177.201 58.5619C178.163 59.2159 178.644 60.026 178.644 60.9922C178.644 62.1665 178.222 63.0955 177.378 63.7793C176.551 64.4482 175.361 64.7826 173.808 64.7826C172.188 64.7826 170.922 64.411 170.01 63.6678C169.115 62.9246 168.676 61.78 168.693 60.2341V59.0524H160.54V60.9253Z" fill="#181818"/><path d="M0 33.3333H8.96902L11.5966 19.8718H22.6626L23.7995 13.9881H12.7335L14.1988 6.45605H26.9071L28.1703 0H6.49306L0 33.3333Z" fill="#181818"/><path d="M25.1062 33.3333H34.2015L40.6946 0H31.5992L25.1062 33.3333Z" fill="#181818"/><path d="M42.734 6.45605H52.3599L47.13 33.3333H56.2254L61.4552 6.45605H71.0306L72.2938 0H43.9972L42.734 6.45605Z" fill="#181818"/></svg>