<svg width="58" height="20" viewBox="0 0 58 20" fill="none" xmlns="http://www.w3.org/2000/svg"><path fill-rule="evenodd" clip-rule="evenodd" d="M14.5006 19.8442H9.48107L5.71703 4.32879C5.53838 3.61508 5.15904 2.98412 4.60104 2.68674C3.20849 1.93942 1.67399 1.34466 0 1.0447V0.447351H8.08608C9.20207 0.447351 10.0391 1.34466 10.1786 2.38678L12.1316 13.5786L17.1487 0.447351H22.0287L14.5006 19.8442ZM24.8187 19.8442H20.0782L23.9817 0.447351H28.7222L24.8187 19.8442ZM34.8553 5.82087C34.9948 4.77617 35.8318 4.17882 36.8083 4.17882C38.3428 4.02884 40.0144 4.32881 41.4094 5.07355L42.2464 0.897309C40.8514 0.299965 39.3169 0 37.9243 0C33.3233 0 29.9753 2.68676 29.9753 6.41563C29.9753 9.25237 32.3468 10.7419 34.0208 11.6392C35.8318 12.5339 36.5293 13.1312 36.3898 14.026C36.3898 15.368 34.9948 15.9654 33.6023 15.9654C31.9283 15.9654 30.2543 15.518 28.7222 14.7707L27.8852 18.9495C29.5592 19.6943 31.3703 19.9942 33.0443 19.9942C38.2033 20.1416 41.4094 17.4574 41.4094 13.4286C41.4094 8.35506 34.8553 8.05768 34.8553 5.82087ZM58 19.8442L54.236 0.447351H50.1929C49.3559 0.447351 48.5189 1.0447 48.2399 1.93942L41.2698 19.8442H46.1499L47.1239 17.0101H53.12L53.678 19.8442H58ZM50.8904 5.6709L52.283 12.9813H48.3794L50.8904 5.6709Z" fill="#333333"/></svg>