<svg width="16" height="18" viewBox="0 0 16 18" fill="none" xmlns="http://www.w3.org/2000/svg"><path d="M15 4.184C12.41 3.92 9.80444 3.784 7.20667 3.784C5.66667 3.784 4.12667 3.864 2.58667 4.024L1 4.184M5.27778 3.376L5.44889 2.328C5.57333 1.568 5.66667 1 6.98111 1H9.01889C10.3333 1 10.4344 1.6 10.5511 2.336L10.7222 3.376M13.3278 6.712L12.8222 14.768C12.7367 16.024 12.6667 17 10.4967 17H5.50333C3.33333 17 3.26333 16.024 3.17778 14.768L2.67222 6.712M6.70111 12.6H9.29111M6.05556 9.4H9.94444" stroke="currentColor" stroke-linecap="round" stroke-linejoin="round"/></svg>