<svg width="46" height="51" viewBox="0 0 46 51" fill="none" xmlns="http://www.w3.org/2000/svg"><path d="M44.2308 51H1.76923C0.802051 51 0 50.1643 0 49.1566C0 48.1489 0.802051 47.3133 1.76923 47.3133H44.2308C45.198 47.3133 46 48.1489 46 49.1566C46 50.1643 45.198 51 44.2308 51Z" fill="currentColor"/><path d="M7.90256 15.681H4.12821C2.83077 15.681 1.76923 16.787 1.76923 18.1388V39.3253C1.76923 40.6771 2.83077 41.7831 4.12821 41.7831H7.90256C9.2 41.7831 10.2615 40.6771 10.2615 39.3253V18.1388C10.2615 16.7624 9.2 15.681 7.90256 15.681Z" fill="currentColor"/><path d="M24.8872 7.84048H21.1128C19.8154 7.84048 18.7538 8.94651 18.7538 10.2983V39.3253C18.7538 40.6771 19.8154 41.7831 21.1128 41.7831H24.8872C26.1846 41.7831 27.2462 40.6771 27.2462 39.3253V10.2983C27.2462 8.94651 26.1846 7.84048 24.8872 7.84048Z" fill="currentColor"/><path d="M41.8718 0H38.0974C36.8 0 35.7385 1.10602 35.7385 2.45783V39.3253C35.7385 40.6771 36.8 41.7831 38.0974 41.7831H41.8718C43.1692 41.7831 44.2308 40.6771 44.2308 39.3253V2.45783C44.2308 1.10602 43.1692 0 41.8718 0Z" fill="currentColor"/></svg>