<svg width="30" height="21" viewBox="0 0 30 21" fill="none" xmlns="http://www.w3.org/2000/svg"><path d="M22.5 10.2951C24.7784 10.2951 26.6254 8.46058 26.6254 6.19756C26.6254 3.93454 24.7784 2.1 22.5 2.1C20.2216 2.1 18.3746 3.93454 18.3746 6.19756C18.3746 8.46058 20.2216 10.2951 22.5 10.2951Z" fill="currentColor"/><path d="M9.64286 10.2439C12.5722 10.2439 14.947 7.95073 14.947 5.12195C14.947 2.29318 12.5722 0 9.64286 0C6.71348 0 4.33876 2.29318 4.33876 5.12195C4.33876 7.95073 6.71348 10.2439 9.64286 10.2439Z" fill="currentColor"/><path d="M9.64286 12.8049C9.52291 12.8049 9.40347 12.8066 9.28457 12.8101C4.13499 12.9606 0 16.3425 0 20.4878C0 20.7746 0.23338 21 0.53041 21H18.7553C19.0523 21 19.2857 20.7746 19.2857 20.4878C19.2857 20.307 19.2778 20.1277 19.2624 19.95C19.2313 19.5927 19.1694 19.2422 19.0789 18.9C18.6759 17.3762 17.7048 16.0183 16.3515 14.973C14.6142 13.6312 12.247 12.8049 9.64286 12.8049Z" fill="currentColor"/><path fill-rule="evenodd" clip-rule="evenodd" d="M17.4923 13.9177C18.8214 12.9394 20.5777 12.3439 22.5 12.3439C26.6337 12.3439 30 15.0975 30 18.4902C30 18.7197 29.8185 18.9 29.5875 18.9H21.394C21.1529 16.8579 19.6704 15.0676 17.4923 13.9177ZM19.2624 19.95C19.2313 19.5927 19.1694 19.2422 19.0789 18.9C18.6759 17.3762 17.7048 16.0183 16.3515 14.973C14.6142 13.6312 12.247 12.8049 9.64286 12.8049C9.52291 12.8049 9.40347 12.8066 9.28457 12.8101C5.17731 13.6013 2.14286 16.2931 2.14286 19.489C2.14286 19.7472 2.37624 19.95 2.67327 19.95H19.2624Z" fill="currentColor"/></svg>