<svg width="14" height="14" viewBox="0 0 14 14" fill="none" xmlns="http://www.w3.org/2000/svg"><path d="M3.73645 13H10.3069M5.5284 8.2036H8.51497M9.82906 11.1894H4.2143C3.96343 11.1894 3.68269 10.9915 3.59907 10.7517L1.12619 3.80889C0.773769 2.81364 1.18592 2.50787 2.0341 3.11941L4.36363 4.79216C4.75189 5.06195 5.1939 4.92406 5.36115 4.48639L6.41242 1.67449C6.74692 0.775169 7.30242 0.775169 7.63692 1.67449L8.68819 4.48639C8.85544 4.92406 9.29745 5.06195 9.67974 4.79216L11.8659 3.22733C12.7977 2.55583 13.2457 2.89758 12.8634 3.98276L10.4503 10.7637C10.3607 10.9915 10.0799 11.1894 9.82906 11.1894Z" stroke="currentColor" stroke-linecap="round" stroke-linejoin="round"/></svg>