<svg width="16" height="16" viewBox="0 0 16 16" fill="none" xmlns="http://www.w3.org/2000/svg"><path d="M5.90462 10.0959L10.1109 5.88955M9.75655 9.74533H9.76285M6.2513 6.24008H6.25759M2.39158 9.8578L1.32599 8.79219C0.891337 8.35754 0.891337 7.64246 1.32599 7.20781L2.39158 6.1422C2.57385 5.95993 2.72107 5.60239 2.72107 5.35001V3.84273C2.72107 3.22581 3.22584 2.72107 3.84276 2.72107H5.35002C5.6024 2.72107 5.95993 2.57387 6.14221 2.3916L7.2078 1.32599C7.64245 0.891337 8.35753 0.891337 8.79218 1.32599L9.85779 2.3916C10.0401 2.57387 10.3976 2.72107 10.65 2.72107H12.1572C12.7742 2.72107 13.2789 3.22581 13.2789 3.84273V5.35001C13.2789 5.60239 13.4261 5.95993 13.6084 6.1422L14.674 7.20781C15.1087 7.64246 15.1087 8.35754 14.674 8.79219L13.6084 9.8578C13.4261 10.0401 13.2789 10.3976 13.2789 10.65V12.1572C13.2789 12.7741 12.7742 13.2789 12.1572 13.2789H10.65C10.3976 13.2789 10.0401 13.4261 9.85779 13.6084L8.79218 14.674C8.35753 15.1087 7.64245 15.1087 7.2078 14.674L6.14221 13.6084C5.95993 13.4261 5.6024 13.2789 5.35002 13.2789H3.84276C3.22584 13.2789 2.72107 12.7741 2.72107 12.1572V10.65C2.72107 10.3906 2.57385 10.0331 2.39158 9.8578Z" stroke="currentColor" stroke-linecap="round" stroke-linejoin="round"/></svg>