<svg width="31" height="28" viewBox="0 0 31 28" fill="none" xmlns="http://www.w3.org/2000/svg"><path d="M16.95 9.41176H8.24999M28.55 17.1353C29.362 17.1047 30 16.4165 30 15.5753V12.4247C30 11.5835 29.362 10.8953 28.55 10.8647M28.55 17.1353H25.708C24.142 17.1353 22.7065 15.927 22.576 14.2753C22.489 13.3118 22.837 12.4094 23.446 11.7823C23.9825 11.2012 24.722 10.8647 25.534 10.8647H28.55M28.55 17.1353L28.55 19.3529C28.55 23.9412 25.65 27 21.3 27H8.24999C3.9 27 1 23.9412 1 19.3529V8.64706C1 4.48706 3.378 1.58117 7.07549 1.09176C7.45249 1.03058 7.84399 1 8.24999 1H21.3C21.677 1 22.0395 1.01528 22.3875 1.07645C26.1285 1.53528 28.55 4.45647 28.55 8.64706L28.55 10.8647" stroke="currentColor" stroke-linecap="round" stroke-linejoin="round"/></svg>