<svg width="12" height="13" viewBox="0 0 12 13" fill="none" xmlns="http://www.w3.org/2000/svg"><path d="M5.53704 10.5625H4.14815C3.46914 10.5625 2.91358 11.1475 2.91358 11.8625V12.025H2.2963C2.04321 12.025 1.83333 12.246 1.83333 12.5125C1.83333 12.779 2.04321 13 2.2963 13H9.7037C9.95679 13 10.1667 12.779 10.1667 12.5125C10.1667 12.246 9.95679 12.025 9.7037 12.025H9.08642V11.8625C9.08642 11.1475 8.53086 10.5625 7.85185 10.5625H6.46296V9.074C6.30864 9.0935 6.15432 9.1 6 9.1C5.84568 9.1 5.69136 9.0935 5.53704 9.074V10.5625Z" fill="currentColor"/><path d="M10 6.266C10.4074 6.1035 10.7654 5.837 11.0494 5.538C11.6235 4.8685 12 4.069 12 3.133C12 2.197 11.3025 1.4625 10.4136 1.4625H10.0679C9.66667 0.598 8.82716 0 7.85185 0H4.14815C3.17284 0 2.33333 0.598 1.9321 1.4625H1.58642C0.697531 1.4625 0 2.197 0 3.133C0 4.069 0.376543 4.8685 0.950617 5.538C1.23457 5.837 1.59259 6.1035 2 6.266C2.64198 7.93 4.18519 9.1 6 9.1C7.81482 9.1 9.35802 7.93 10 6.266ZM7.75309 4.1925L7.37037 4.6865C7.30864 4.758 7.26543 4.901 7.27161 4.9985L7.30864 5.6355C7.33333 6.0255 7.0679 6.227 6.72222 6.084L6.16049 5.85C6.07407 5.8175 5.92593 5.8175 5.83951 5.85L5.27778 6.084C4.9321 6.227 4.66667 6.0255 4.69136 5.6355L4.7284 4.9985C4.73457 4.901 4.69136 4.758 4.62963 4.6865L4.24691 4.1925C4.00617 3.8935 4.11111 3.562 4.46914 3.4645L5.05556 3.3085C5.14815 3.2825 5.25926 3.1915 5.30864 3.107L5.6358 2.574C5.83951 2.2425 6.16049 2.2425 6.3642 2.574L6.69136 3.107C6.74074 3.1915 6.85185 3.2825 6.94445 3.3085L7.53086 3.4645C7.88889 3.562 7.99383 3.8935 7.75309 4.1925Z" fill="currentColor"/></svg>