<svg width="30" height="30" viewBox="0 0 30 30" fill="none" xmlns="http://www.w3.org/2000/svg"><path d="M21.2956 0H8.71935C3.25662 0 0 3.255 0 8.715V21.27C0 26.745 3.25662 30 8.71935 30H21.2806C26.7433 30 29.9999 26.745 29.9999 21.285V8.715C30.015 3.255 26.7583 0 21.2956 0ZM8.44921 24.225C8.44921 24.84 7.93896 25.35 7.32365 25.35C6.70834 25.35 6.19809 24.84 6.19809 24.225V21.12C6.19809 20.505 6.70834 19.995 7.32365 19.995C7.93896 19.995 8.44921 20.505 8.44921 21.12V24.225ZM16.133 24.225C16.133 24.84 15.6228 25.35 15.0075 25.35C14.3922 25.35 13.8819 24.84 13.8819 24.225V18C13.8819 17.385 14.3922 16.875 15.0075 16.875C15.6228 16.875 16.133 17.385 16.133 18V24.225ZM23.8169 24.225C23.8169 24.84 23.3066 25.35 22.6913 25.35C22.076 25.35 21.5657 24.84 21.5657 24.225V14.895C21.5657 14.28 22.076 13.77 22.6913 13.77C23.3066 13.77 23.8169 14.28 23.8169 14.895V24.225ZM23.8169 10.155C23.8169 10.77 23.3066 11.28 22.6913 11.28C22.076 11.28 21.5657 10.77 21.5657 10.155V8.7C17.7388 12.63 12.9515 15.405 7.59378 16.74C7.50374 16.77 7.41369 16.77 7.32365 16.77C6.8134 16.77 6.36317 16.425 6.2281 15.915C6.07803 15.315 6.43821 14.7 7.05351 14.55C12.111 13.29 16.6133 10.635 20.1851 6.885H18.3091C17.6938 6.885 17.1836 6.375 17.1836 5.76C17.1836 5.145 17.6938 4.635 18.3091 4.635H22.7063C22.7663 4.635 22.8114 4.665 22.8714 4.665C22.9464 4.68 23.0215 4.68 23.0965 4.71C23.1715 4.74 23.2316 4.785 23.3066 4.83C23.3516 4.86 23.3967 4.875 23.4417 4.905C23.4567 4.92 23.4567 4.935 23.4717 4.935C23.5317 4.995 23.5767 5.055 23.6218 5.115C23.6668 5.175 23.7118 5.22 23.7268 5.28C23.7568 5.34 23.7568 5.4 23.7718 5.475C23.7869 5.55 23.8169 5.625 23.8169 5.715C23.8169 5.73 23.8319 5.745 23.8319 5.76V10.155H23.8169Z" fill="currentColor"/></svg>