<svg width="29" height="30" viewBox="0 0 29 30" fill="none" xmlns="http://www.w3.org/2000/svg"><path d="M21.4194 30C22.7996 30 23.9184 28.8939 23.9184 27.5294C23.9184 26.1649 22.7996 25.0588 21.4194 25.0588C20.0393 25.0588 18.9205 26.1649 18.9205 27.5294C18.9205 28.8939 20.0393 30 21.4194 30Z" fill="currentColor"/><path d="M9.99574 30C11.3759 30 12.4947 28.8939 12.4947 27.5294C12.4947 26.1649 11.3759 25.0588 9.99574 25.0588C8.61561 25.0588 7.4968 26.1649 7.4968 27.5294C7.4968 28.8939 8.61561 30 9.99574 30Z" fill="currentColor"/><path d="M5.12639 3.79765L4.84079 7.25647C4.78367 7.92 5.31202 8.47059 5.98316 8.47059H27.8453C28.445 8.47059 28.9448 8.01882 28.9876 7.42588C29.1733 4.92706 27.2455 2.89412 24.718 2.89412H7.16837C7.02558 2.27294 6.73998 1.68 6.29732 1.18588C5.58333 0.437647 4.58376 0 3.55563 0H1.07097C0.485507 0 0 0.48 0 1.05882C0 1.63765 0.485507 2.11765 1.07097 2.11765H3.55563C3.9983 2.11765 4.41241 2.30118 4.71228 2.61176C5.01215 2.93647 5.15495 3.36 5.12639 3.79765Z" fill="currentColor"/><path d="M27.5026 10.5882H5.59761C4.99787 10.5882 4.51236 11.04 4.45524 11.6188L3.94118 17.76C3.74126 20.1741 5.65473 22.2353 8.09655 22.2353H23.9755C26.1174 22.2353 28.0023 20.4988 28.1594 18.3812L28.6306 11.7882C28.6878 11.1388 28.1737 10.5882 27.5026 10.5882Z" fill="currentColor"/></svg>