<svg width="99" height="72" viewBox="0 0 99 72" fill="none" xmlns="http://www.w3.org/2000/svg"><path d="M2.63184 69.0479H4.56641L6.33008 62.1162C6.37109 61.9613 6.40299 61.8177 6.42578 61.6855C6.44857 61.5534 6.46908 61.4098 6.4873 61.2549H6.54199C6.56022 61.4098 6.58073 61.5534 6.60352 61.6855C6.63086 61.8177 6.66504 61.9613 6.70605 62.1162L8.46973 69.0479H10.4453L12.7969 59.0469H11.1357L9.65234 65.9648C9.62044 66.1198 9.59538 66.2451 9.57715 66.3408C9.56348 66.4365 9.54753 66.5596 9.5293 66.71H9.46777C9.4541 66.5596 9.44043 66.4365 9.42676 66.3408C9.41309 66.2451 9.38574 66.1198 9.34473 65.9648L7.61523 59.0469H5.61914L3.92383 65.9717C3.88737 66.1266 3.8623 66.252 3.84863 66.3477C3.83496 66.4388 3.81901 66.5596 3.80078 66.71H3.73926C3.72103 66.5596 3.70508 66.4388 3.69141 66.3477C3.67773 66.252 3.65267 66.1266 3.61621 65.9717L2.07129 59.0469H0.25293L2.63184 69.0479ZM13.9007 64.3379C13.9007 65.9056 14.3086 67.1087 15.1244 67.9473C15.9401 68.7858 16.9883 69.2051 18.2689 69.2051C19.5541 69.2051 20.6068 68.7858 21.4271 67.9473C22.2474 67.1087 22.6576 65.9056 22.6576 64.3379V63.709C22.6576 62.1413 22.2474 60.9382 21.4271 60.0996C20.6068 59.2611 19.5541 58.8418 18.2689 58.8418C16.9883 58.8418 15.9401 59.2611 15.1244 60.0996C14.3086 60.9382 13.9007 62.1413 13.9007 63.709V64.3379ZM15.7738 64.4609V63.5859C15.7738 62.5059 15.9994 61.6878 16.4505 61.1318C16.9063 60.5713 17.5124 60.291 18.2689 60.291C19.03 60.291 19.6384 60.5713 20.0941 61.1318C20.5544 61.6878 20.7845 62.5059 20.7845 63.5859V64.4609C20.7845 65.541 20.5544 66.3613 20.0941 66.9219C19.6384 67.4779 19.03 67.7559 18.2689 67.7559C17.5124 67.7559 16.9063 67.4779 16.4505 66.9219C15.9994 66.3613 15.7738 65.541 15.7738 64.4609ZM24.6159 69H26.448V65.2402H28.1091C29.2393 65.2402 30.1166 64.96 30.7409 64.3994C31.3698 63.8389 31.6843 63.0778 31.6843 62.1162C31.6843 61.1592 31.3721 60.4095 30.7478 59.8672C30.1234 59.3203 29.2461 59.0469 28.1159 59.0469H24.6159V69ZM26.448 63.8525V60.4414H28.0681C28.7243 60.4414 29.1846 60.5964 29.4489 60.9062C29.7178 61.2116 29.8523 61.6195 29.8523 62.1299C29.8523 62.6403 29.7178 63.055 29.4489 63.374C29.1846 63.693 28.7243 63.8525 28.0681 63.8525H26.448ZM30.1325 69H32.1833L29.6609 64.2764L27.7536 64.4062L30.1325 69ZM33.5743 69H39.8907V67.5781H35.4063V59.0469H33.5743V69ZM41.4252 69H44.6381C45.9552 69 47.0558 68.5876 47.9399 67.7627C48.824 66.9333 49.2661 65.7917 49.2661 64.3379V63.709C49.2661 62.2552 48.824 61.1159 47.9399 60.291C47.0558 59.4616 45.9552 59.0469 44.6381 59.0469H41.4252V69ZM43.2504 67.5986V60.4551H44.6176C45.4516 60.4551 46.1238 60.7331 46.6342 61.2891C47.1446 61.8405 47.3998 62.638 47.3998 63.6816V64.3652C47.3998 65.4089 47.1446 66.2087 46.6342 66.7646C46.1238 67.3206 45.4516 67.5986 44.6176 67.5986H43.2504ZM54.2218 66.2109C54.2218 67.168 54.575 67.9062 55.2814 68.4258C55.9923 68.9453 56.9175 69.2051 58.0568 69.2051C59.2007 69.2051 60.1144 68.943 60.798 68.4189C61.4816 67.8949 61.8234 67.1794 61.8234 66.2725C61.8234 65.3975 61.5545 64.7275 61.0168 64.2627C60.479 63.7933 59.6883 63.415 58.6447 63.1279C57.6466 62.8545 56.9972 62.6175 56.6964 62.417C56.4002 62.2165 56.2521 61.9294 56.2521 61.5557C56.2521 61.1637 56.3934 60.8538 56.6759 60.626C56.9585 60.3981 57.3983 60.2842 57.9953 60.2842C58.5877 60.2842 59.0343 60.4255 59.3351 60.708C59.6405 60.986 59.7931 61.3529 59.7931 61.8086V61.9385H61.6252V61.7949C61.6252 60.9154 61.2948 60.2044 60.6339 59.6621C59.9731 59.1152 59.0913 58.8418 57.9884 58.8418C56.881 58.8418 56.0037 59.1038 55.3566 59.6279C54.714 60.1475 54.3927 60.8288 54.3927 61.6719C54.3973 62.474 54.6548 63.1006 55.1652 63.5518C55.6802 64.0029 56.4663 64.3721 57.5236 64.6592C58.5216 64.9235 59.1779 65.1719 59.4923 65.4043C59.8114 65.6367 59.9709 65.9603 59.9709 66.375C59.9709 66.7943 59.8045 67.1315 59.4718 67.3867C59.1437 67.6419 58.6698 67.7695 58.05 67.7695C57.4302 67.7695 56.9471 67.6396 56.6007 67.3799C56.2589 67.1156 56.088 66.7191 56.088 66.1904V66.0605H54.2218V66.2109ZM63.5288 69H65.3609V65.3701H67.1519C68.2912 65.3701 69.1662 65.0898 69.7769 64.5293C70.3876 63.9642 70.6929 63.1872 70.6929 62.1982C70.6929 61.2048 70.3876 60.4323 69.7769 59.8809C69.1662 59.3249 68.2935 59.0469 67.1587 59.0469H63.5288V69ZM65.3609 63.9688V60.4551H67.0288C67.717 60.4551 68.1932 60.6146 68.4575 60.9336C68.7264 61.248 68.8609 61.6696 68.8609 62.1982C68.8609 62.7314 68.7264 63.1598 68.4575 63.4834C68.1932 63.807 67.717 63.9688 67.0288 63.9688H65.3609ZM71.8925 64.3379C71.8925 65.9056 72.3003 67.1087 73.1161 67.9473C73.9319 68.7858 74.98 69.2051 76.2606 69.2051C77.5458 69.2051 78.5985 68.7858 79.4188 67.9473C80.2391 67.1087 80.6493 65.9056 80.6493 64.3379V63.709C80.6493 62.1413 80.2391 60.9382 79.4188 60.0996C78.5985 59.2611 77.5458 58.8418 76.2606 58.8418C74.98 58.8418 73.9319 59.2611 73.1161 60.0996C72.3003 60.9382 71.8925 62.1413 71.8925 63.709V64.3379ZM73.7655 64.4609V63.5859C73.7655 62.5059 73.9911 61.6878 74.4423 61.1318C74.898 60.5713 75.5041 60.291 76.2606 60.291C77.0217 60.291 77.6301 60.5713 78.0858 61.1318C78.5461 61.6878 78.7763 62.5059 78.7763 63.5859V64.4609C78.7763 65.541 78.5461 66.3613 78.0858 66.9219C77.6301 67.4779 77.0217 67.7559 76.2606 67.7559C75.5041 67.7559 74.898 67.4779 74.4423 66.9219C73.9911 66.3613 73.7655 65.541 73.7655 64.4609ZM82.6077 69H84.4397V65.2402H86.1008C87.231 65.2402 88.1083 64.96 88.7327 64.3994C89.3616 63.8389 89.676 63.0778 89.676 62.1162C89.676 61.1592 89.3638 60.4095 88.7395 59.8672C88.1151 59.3203 87.2379 59.0469 86.1077 59.0469H82.6077V69ZM84.4397 63.8525V60.4414H86.0598C86.7161 60.4414 87.1763 60.5964 87.4407 60.9062C87.7095 61.2116 87.844 61.6195 87.844 62.1299C87.844 62.6403 87.7095 63.055 87.4407 63.374C87.1763 63.693 86.7161 63.8525 86.0598 63.8525H84.4397ZM88.1243 69H90.175L87.6526 64.2764L85.7454 64.4062L88.1243 69ZM90.0963 60.4688H93.1383V69H94.9771V60.4688H98.0123V59.0469H90.0963V60.4688Z" fill="#333333"/><path fill-rule="evenodd" clip-rule="evenodd" d="M68.437 16.4067C63.8909 -4.11976 34.1324 -4.14347 29.5631 16.383C26.8957 28.424 34.2252 40.2464 40.6268 46.5513C45.3121 51.1496 52.688 51.1496 57.3501 46.5513C63.7749 40.2464 71.1044 28.4477 68.437 16.4067Z" fill="#333333" stroke="#C5EC2A"/><path d="M52.2231 20C51.1591 20 49.8898 20.3852 49.8898 22.2222V25.7778C49.8898 27.6148 51.1591 28 52.2231 28C53.2871 28 54.5564 27.6148 54.5564 25.7778V22.2222C54.5564 20.3852 53.2871 20 52.2231 20Z" fill="#C5EC2A"/><path d="M45.7769 20C44.7129 20 43.4436 20.3852 43.4436 22.2222V25.7778C43.4436 27.6148 44.7129 28 45.7769 28C46.8409 28 48.1102 27.6148 48.1102 25.7778V22.2222C48.1102 20.3852 46.8409 20 45.7769 20Z" fill="#C5EC2A"/><path d="M49.8898 23.5556H48.1102V24.4444H49.8898V23.5556Z" fill="#C5EC2A"/><path d="M55.5333 25.9259C55.2782 25.9259 55.0667 25.7244 55.0667 25.4815V22.5185C55.0667 22.2756 55.2782 22.0741 55.5333 22.0741C55.7884 22.0741 56 22.2756 56 22.5185V25.4815C56 25.7244 55.7884 25.9259 55.5333 25.9259Z" fill="#C5EC2A"/><path d="M42.4667 25.9259C42.2116 25.9259 42 25.7244 42 25.4815V22.5185C42 22.2756 42.2116 22.0741 42.4667 22.0741C42.7218 22.0741 42.9333 22.2756 42.9333 22.5185V25.4815C42.9333 25.7244 42.7218 25.9259 42.4667 25.9259Z" fill="#C5EC2A"/></svg>