<svg width="32" height="32" viewBox="0 0 32 32" fill="none" xmlns="http://www.w3.org/2000/svg"><path d="M13.165 14.725H9.18999C8.24499 14.725 7.48001 15.49 7.48001 16.435V24.115H13.165V14.725Z" stroke="currentColor" stroke-linecap="round" stroke-linejoin="round"/><path d="M17.1419 7.89996H14.8619C13.9169 7.89996 13.1519 8.66499 13.1519 9.60999V24.1H18.8369V9.60999C18.8369 8.66499 18.0869 7.89996 17.1419 7.89996Z" stroke="currentColor" stroke-linecap="round" stroke-linejoin="round"/><path d="M22.8222 17.275H18.8472V24.1H24.5322V18.985C24.5172 18.04 23.7522 17.275 22.8222 17.275Z" stroke="currentColor" stroke-linecap="round" stroke-linejoin="round"/><path d="M11.5 31H20.5C28 31 31 28 31 20.5V11.5C31 4 28 1 20.5 1H11.5C4 1 1 4 1 11.5V20.5C1 28 4 31 11.5 31Z" stroke="currentColor" stroke-linecap="round" stroke-linejoin="round"/></svg>