<svg width="42" height="51" viewBox="0 0 42 51" fill="none" xmlns="http://www.w3.org/2000/svg"><path fill-rule="evenodd" clip-rule="evenodd" d="M40.437 16.4067C35.8909 -4.11976 6.13237 -4.14347 1.56306 16.383C-1.10431 28.424 6.22515 40.2464 12.6268 46.5513C17.3121 51.1496 24.688 51.1496 29.3501 46.5513C35.7749 40.2464 43.1044 28.4477 40.437 16.4067Z" fill="#333333" stroke="#C5EC2A"/><path d="M21 23.7805C23.4303 23.7805 25.4004 21.8149 25.4004 19.3902C25.4004 16.9656 23.4303 15 21 15C18.5697 15 16.5996 16.9656 16.5996 19.3902C16.5996 21.8149 18.5697 23.7805 21 23.7805Z" fill="#C5EC2A"/><path d="M21 25.9756C16.5908 25.9756 13 28.9259 13 32.561C13 32.8068 13.1936 33 13.44 33H28.56C28.8064 33 29 32.8068 29 32.561C29 28.9259 25.4092 25.9756 21 25.9756Z" fill="#C5EC2A"/></svg>