<svg width="22" height="22" viewBox="0 0 22 22" fill="none" xmlns="http://www.w3.org/2000/svg"><path d="M12 1H8C3 1 1 3 1 8V14C1 19 3 21 8 21H14C19 21 21 19 21 14V9M17 1V7M17 7L19 5M17 7L15 5M1.67 17.95L6.6 14.64C7.39 14.11 8.53 14.17 9.24 14.78L9.57 15.07C10.35 15.74 11.61 15.74 12.39 15.07L16.55 11.5C17.33 10.83 18.59 10.83 19.37 11.5L21 12.9M10 7C10 8.10457 9.10457 9 8 9C6.89543 9 6 8.10457 6 7C6 5.89543 6.89543 5 8 5C9.10457 5 10 5.89543 10 7Z" stroke="currentColor" stroke-linecap="round" stroke-linejoin="round"/></svg>