<svg xmlns="http://www.w3.org/2000/svg" xmlns:xlink="http://www.w3.org/1999/xlink"><defs><linearGradient id="paint0_linear_124_818" x1="46.5769" y1="4.1048" x2="66" y2="4.1048" gradientUnits="userSpaceOnUse"><stop offset="0.3" stop-color="#00B4E6"/><stop offset="1" stop-color="#088CCB"/></linearGradient></defs><symbol id="arrow-check" viewBox="0 0 11 8"><g fill="none"><path d="M1 4L3.99647 7L10 1" stroke="currentColor" stroke-linecap="round" stroke-linejoin="round"/></g></symbol><symbol id="arrow-down" viewBox="0 0 17 8"><g fill="none"><path d="M16 1L9.82576 6.5118C9.09659 7.16273 7.90341 7.16273 7.17424 6.5118L1 1" stroke="currentColor" stroke-miterlimit="10" stroke-linecap="round" stroke-linejoin="round"/></g></symbol><symbol id="arrow-left" viewBox="0 0 16 12"><g fill="none"><path d="M5.99882 1L1 6L5.99882 11M15 6H1.14" stroke="currentColor" stroke-miterlimit="10" stroke-linecap="round" stroke-linejoin="round"/></g></symbol><symbol id="arrow-right" viewBox="0 0 16 12"><g fill="none"><path d="M10.0012 1L15 6L10.0012 11M1 6H14.86" stroke="currentColor" stroke-miterlimit="10" stroke-linecap="round" stroke-linejoin="round"/></g></symbol><symbol id="dash-line" viewBox="0 0 310 2"><g fill="none"><path d="M0 1L310 1.00003" stroke="#CFCFCF" stroke-dasharray="4 4"/></g></symbol><symbol id="icon-add" viewBox="0 0 30 30"><g fill="none"><path d="M21.2956 0H8.71935C3.25662 0 0 3.255 0 8.715V21.27C0 26.745 3.25662 30 8.71935 30H21.2806C26.7433 30 29.9999 26.745 29.9999 21.285V8.715C30.015 3.255 26.7583 0 21.2956 0ZM21.0105 16.125H16.133V21C16.133 21.615 15.6228 22.125 15.0075 22.125C14.3922 22.125 13.8819 21.615 13.8819 21V16.125H9.00449C8.38918 16.125 7.87893 15.615 7.87893 15C7.87893 14.385 8.38918 13.875 9.00449 13.875H13.8819V9C13.8819 8.385 14.3922 7.875 15.0075 7.875C15.6228 7.875 16.133 8.385 16.133 9V13.875H21.0105C21.6258 13.875 22.136 14.385 22.136 15C22.136 15.615 21.6258 16.125 21.0105 16.125Z" fill="currentColor"/></g></symbol><symbol id="icon-arrow" viewBox="0 0 17 26"><g fill="none"><path d="M16.1563 11.4636L3.28037 0.733641C1.97771 -0.351904 0 0.574409 0 2.27008V23.7299C0 25.4256 1.97772 26.3519 3.28037 25.2664L16.1563 14.5364C17.1158 13.7369 17.1158 12.2631 16.1563 11.4636Z" fill="currentColor"/></g></symbol><symbol id="icon-bag" viewBox="0 0 26 30"><g fill="none"><path d="M24.7034 10.4423C23.7185 9.33242 22.2336 8.6875 20.1754 8.46252V7.32266C20.1754 5.2679 19.3227 3.28813 17.8232 1.90829C16.309 0.498454 14.339 -0.161468 12.2955 0.0335087C8.78186 0.378468 5.82688 3.84306 5.82688 7.59262V8.46252C3.76869 8.6875 2.28385 9.33242 1.29886 10.4423C-0.127173 12.0621 -0.0830689 14.2218 0.0786462 15.7217L1.10774 24.0757C1.41647 27.0004 2.57788 30 8.89947 30H17.1028C23.4244 30 24.5858 27.0004 24.8946 24.0907L25.9237 15.7067C26.0854 14.2218 26.1148 12.0621 24.7034 10.4423ZM12.5013 2.11826C13.9714 1.98328 15.3681 2.44823 16.456 3.45311C17.5292 4.44299 18.1319 5.85283 18.1319 7.32266V8.37253H7.87037V7.59262C7.87037 4.92294 10.0315 2.35824 12.5013 2.11826ZM7.73806 16.7266H7.72336C6.91478 16.7266 6.25322 16.0516 6.25322 15.2267C6.25322 14.4018 6.91478 13.7269 7.72336 13.7269C8.54664 13.7269 9.2082 14.4018 9.2082 15.2267C9.2082 16.0516 8.54664 16.7266 7.73806 16.7266ZM18.029 16.7266H18.0143C17.2057 16.7266 16.5442 16.0516 16.5442 15.2267C16.5442 14.4018 17.2057 13.7269 18.0143 13.7269C18.8376 13.7269 19.4992 14.4018 19.4992 15.2267C19.4992 16.0516 18.8376 16.7266 18.029 16.7266Z" fill="currentColor"/></g></symbol><symbol id="icon-book" viewBox="0 0 30 26"><g fill="none"><path d="M30 3.16339V20.4964C30 21.9105 28.8156 23.2079 27.3613 23.3828L26.8966 23.4412C24.4378 23.7619 20.9745 24.7532 18.1859 25.8902C17.2114 26.2838 16.1319 25.5695 16.1319 24.5345V4.25673C16.1319 3.71735 16.4468 3.2217 16.9415 2.9593C19.6852 1.51609 23.8381 0.233245 26.6567 0H26.7466C28.5457 0 30 1.41405 30 3.16339Z" fill="currentColor"/><path d="M13.0735 2.9593C10.3298 1.51609 6.17691 0.233245 3.35832 0H3.25337C1.45427 0 0 1.41405 0 3.16339V20.4964C0 21.9105 1.18441 23.2079 2.63868 23.3828L3.10345 23.4412C5.56222 23.7619 9.02549 24.7532 11.8141 25.8902C12.7886 26.2838 13.8681 25.5695 13.8681 24.5345V4.25673C13.8681 3.70277 13.5682 3.2217 13.0735 2.9593ZM4.51274 7.37638H7.88606C8.50075 7.37638 9.0105 7.87203 9.0105 8.46972C9.0105 9.08199 8.50075 9.56306 7.88606 9.56306H4.51274C3.89805 9.56306 3.38831 9.08199 3.38831 8.46972C3.38831 7.87203 3.89805 7.37638 4.51274 7.37638ZM9.0105 13.9364H4.51274C3.89805 13.9364 3.38831 13.4553 3.38831 12.8431C3.38831 12.2454 3.89805 11.7497 4.51274 11.7497H9.0105C9.62519 11.7497 10.1349 12.2454 10.1349 12.8431C10.1349 13.4553 9.62519 13.9364 9.0105 13.9364Z" fill="currentColor"/></g></symbol><symbol id="icon-change" viewBox="0 0 18 18"><g fill="none"><path d="M17 9C17 13.416 13.416 17 9 17C4.584 17 1.888 12.552 1.888 12.552M1.888 12.552H5.504M1.888 12.552V16.552M1 9C1 4.584 4.552 1 9 1C14.336 1 17 5.448 17 5.448M17 5.448V1.448M17 5.448H13.448" stroke="currentColor"/></g></symbol><symbol id="icon-chart-filled" viewBox="0 0 46 51"><g fill="none"><path d="M44.2308 51H1.76923C0.802051 51 0 50.1643 0 49.1566C0 48.1489 0.802051 47.3133 1.76923 47.3133H44.2308C45.198 47.3133 46 48.1489 46 49.1566C46 50.1643 45.198 51 44.2308 51Z" fill="currentColor"/><path d="M7.90256 15.681H4.12821C2.83077 15.681 1.76923 16.787 1.76923 18.1388V39.3253C1.76923 40.6771 2.83077 41.7831 4.12821 41.7831H7.90256C9.2 41.7831 10.2615 40.6771 10.2615 39.3253V18.1388C10.2615 16.7624 9.2 15.681 7.90256 15.681Z" fill="currentColor"/><path d="M24.8872 7.84048H21.1128C19.8154 7.84048 18.7538 8.94651 18.7538 10.2983V39.3253C18.7538 40.6771 19.8154 41.7831 21.1128 41.7831H24.8872C26.1846 41.7831 27.2462 40.6771 27.2462 39.3253V10.2983C27.2462 8.94651 26.1846 7.84048 24.8872 7.84048Z" fill="currentColor"/><path d="M41.8718 0H38.0974C36.8 0 35.7385 1.10602 35.7385 2.45783V39.3253C35.7385 40.6771 36.8 41.7831 38.0974 41.7831H41.8718C43.1692 41.7831 44.2308 40.6771 44.2308 39.3253V2.45783C44.2308 1.10602 43.1692 0 41.8718 0Z" fill="currentColor"/></g></symbol><symbol id="icon-chart-with-arrow" viewBox="0 0 30 30"><g fill="none"><path d="M21.2956 0H8.71935C3.25662 0 0 3.255 0 8.715V21.27C0 26.745 3.25662 30 8.71935 30H21.2806C26.7433 30 29.9999 26.745 29.9999 21.285V8.715C30.015 3.255 26.7583 0 21.2956 0ZM8.44921 24.225C8.44921 24.84 7.93896 25.35 7.32365 25.35C6.70834 25.35 6.19809 24.84 6.19809 24.225V21.12C6.19809 20.505 6.70834 19.995 7.32365 19.995C7.93896 19.995 8.44921 20.505 8.44921 21.12V24.225ZM16.133 24.225C16.133 24.84 15.6228 25.35 15.0075 25.35C14.3922 25.35 13.8819 24.84 13.8819 24.225V18C13.8819 17.385 14.3922 16.875 15.0075 16.875C15.6228 16.875 16.133 17.385 16.133 18V24.225ZM23.8169 24.225C23.8169 24.84 23.3066 25.35 22.6913 25.35C22.076 25.35 21.5657 24.84 21.5657 24.225V14.895C21.5657 14.28 22.076 13.77 22.6913 13.77C23.3066 13.77 23.8169 14.28 23.8169 14.895V24.225ZM23.8169 10.155C23.8169 10.77 23.3066 11.28 22.6913 11.28C22.076 11.28 21.5657 10.77 21.5657 10.155V8.7C17.7388 12.63 12.9515 15.405 7.59378 16.74C7.50374 16.77 7.41369 16.77 7.32365 16.77C6.8134 16.77 6.36317 16.425 6.2281 15.915C6.07803 15.315 6.43821 14.7 7.05351 14.55C12.111 13.29 16.6133 10.635 20.1851 6.885H18.3091C17.6938 6.885 17.1836 6.375 17.1836 5.76C17.1836 5.145 17.6938 4.635 18.3091 4.635H22.7063C22.7663 4.635 22.8114 4.665 22.8714 4.665C22.9464 4.68 23.0215 4.68 23.0965 4.71C23.1715 4.74 23.2316 4.785 23.3066 4.83C23.3516 4.86 23.3967 4.875 23.4417 4.905C23.4567 4.92 23.4567 4.935 23.4717 4.935C23.5317 4.995 23.5767 5.055 23.6218 5.115C23.6668 5.175 23.7118 5.22 23.7268 5.28C23.7568 5.34 23.7568 5.4 23.7718 5.475C23.7869 5.55 23.8169 5.625 23.8169 5.715C23.8169 5.73 23.8319 5.745 23.8319 5.76V10.155H23.8169Z" fill="currentColor"/></g></symbol><symbol id="icon-chart" viewBox="0 0 32 32"><g fill="none"><path d="M13.165 14.725H9.18999C8.24499 14.725 7.48001 15.49 7.48001 16.435V24.115H13.165V14.725Z" stroke="currentColor" stroke-linecap="round" stroke-linejoin="round"/><path d="M17.1419 7.89996H14.8619C13.9169 7.89996 13.1519 8.66499 13.1519 9.60999V24.1H18.8369V9.60999C18.8369 8.66499 18.0869 7.89996 17.1419 7.89996Z" stroke="currentColor" stroke-linecap="round" stroke-linejoin="round"/><path d="M22.8222 17.275H18.8472V24.1H24.5322V18.985C24.5172 18.04 23.7522 17.275 22.8222 17.275Z" stroke="currentColor" stroke-linecap="round" stroke-linejoin="round"/><path d="M11.5 31H20.5C28 31 31 28 31 20.5V11.5C31 4 28 1 20.5 1H11.5C4 1 1 4 1 11.5V20.5C1 28 4 31 11.5 31Z" stroke="currentColor" stroke-linecap="round" stroke-linejoin="round"/></g></symbol><symbol id="icon-checkbox-off" viewBox="0 0 20 20"><g fill="none"><rect x="0.5" y="0.5" width="19" height="19" rx="1.5" stroke="#333333"/></g></symbol><symbol id="icon-close" viewBox="0 0 20 20"><g fill="none"><path d="M.293 18.291a1 1 0 101.414 1.414L10 11.413l8.292 8.292a1 1 0 101.414-1.414l-8.292-8.292 8.292-8.292A1 1 0 1018.291.293L9.999 8.585 1.707.293A1 1 0 10.293 1.707L8.585 10 .293 18.291z"/></g></symbol><symbol id="icon-cross" viewBox="0 0 22 22"><g fill="none"><path d="M1 1L21 21M1 21L21 1" stroke="currentColor" stroke-linecap="round" stroke-linejoin="round"/></g></symbol><symbol id="icon-crown" viewBox="0 0 14 14"><g fill="none"><path d="M3.73645 13H10.3069M5.5284 8.2036H8.51497M9.82906 11.1894H4.2143C3.96343 11.1894 3.68269 10.9915 3.59907 10.7517L1.12619 3.80889C0.773769 2.81364 1.18592 2.50787 2.0341 3.11941L4.36363 4.79216C4.75189 5.06195 5.1939 4.92406 5.36115 4.48639L6.41242 1.67449C6.74692 0.775169 7.30242 0.775169 7.63692 1.67449L8.68819 4.48639C8.85544 4.92406 9.29745 5.06195 9.67974 4.79216L11.8659 3.22733C12.7977 2.55583 13.2457 2.89758 12.8634 3.98276L10.4503 10.7637C10.3607 10.9915 10.0799 11.1894 9.82906 11.1894Z" stroke="currentColor" stroke-linecap="round" stroke-linejoin="round"/></g></symbol><symbol id="icon-cup" viewBox="0 0 12 13"><g fill="none"><path d="M5.53704 10.5625H4.14815C3.46914 10.5625 2.91358 11.1475 2.91358 11.8625V12.025H2.2963C2.04321 12.025 1.83333 12.246 1.83333 12.5125C1.83333 12.779 2.04321 13 2.2963 13H9.7037C9.95679 13 10.1667 12.779 10.1667 12.5125C10.1667 12.246 9.95679 12.025 9.7037 12.025H9.08642V11.8625C9.08642 11.1475 8.53086 10.5625 7.85185 10.5625H6.46296V9.074C6.30864 9.0935 6.15432 9.1 6 9.1C5.84568 9.1 5.69136 9.0935 5.53704 9.074V10.5625Z" fill="currentColor"/><path d="M10 6.266C10.4074 6.1035 10.7654 5.837 11.0494 5.538C11.6235 4.8685 12 4.069 12 3.133C12 2.197 11.3025 1.4625 10.4136 1.4625H10.0679C9.66667 0.598 8.82716 0 7.85185 0H4.14815C3.17284 0 2.33333 0.598 1.9321 1.4625H1.58642C0.697531 1.4625 0 2.197 0 3.133C0 4.069 0.376543 4.8685 0.950617 5.538C1.23457 5.837 1.59259 6.1035 2 6.266C2.64198 7.93 4.18519 9.1 6 9.1C7.81482 9.1 9.35802 7.93 10 6.266ZM7.75309 4.1925L7.37037 4.6865C7.30864 4.758 7.26543 4.901 7.27161 4.9985L7.30864 5.6355C7.33333 6.0255 7.0679 6.227 6.72222 6.084L6.16049 5.85C6.07407 5.8175 5.92593 5.8175 5.83951 5.85L5.27778 6.084C4.9321 6.227 4.66667 6.0255 4.69136 5.6355L4.7284 4.9985C4.73457 4.901 4.69136 4.758 4.62963 4.6865L4.24691 4.1925C4.00617 3.8935 4.11111 3.562 4.46914 3.4645L5.05556 3.3085C5.14815 3.2825 5.25926 3.1915 5.30864 3.107L5.6358 2.574C5.83951 2.2425 6.16049 2.2425 6.3642 2.574L6.69136 3.107C6.74074 3.1915 6.85185 3.2825 6.94445 3.3085L7.53086 3.4645C7.88889 3.562 7.99383 3.8935 7.75309 4.1925Z" fill="currentColor"/></g></symbol><symbol id="icon-discount" viewBox="0 0 16 16"><g fill="none"><path d="M5.90462 10.0959L10.1109 5.88955M9.75655 9.74533H9.76285M6.2513 6.24008H6.25759M2.39158 9.8578L1.32599 8.79219C0.891337 8.35754 0.891337 7.64246 1.32599 7.20781L2.39158 6.1422C2.57385 5.95993 2.72107 5.60239 2.72107 5.35001V3.84273C2.72107 3.22581 3.22584 2.72107 3.84276 2.72107H5.35002C5.6024 2.72107 5.95993 2.57387 6.14221 2.3916L7.2078 1.32599C7.64245 0.891337 8.35753 0.891337 8.79218 1.32599L9.85779 2.3916C10.0401 2.57387 10.3976 2.72107 10.65 2.72107H12.1572C12.7742 2.72107 13.2789 3.22581 13.2789 3.84273V5.35001C13.2789 5.60239 13.4261 5.95993 13.6084 6.1422L14.674 7.20781C15.1087 7.64246 15.1087 8.35754 14.674 8.79219L13.6084 9.8578C13.4261 10.0401 13.2789 10.3976 13.2789 10.65V12.1572C13.2789 12.7741 12.7742 13.2789 12.1572 13.2789H10.65C10.3976 13.2789 10.0401 13.4261 9.85779 13.6084L8.79218 14.674C8.35753 15.1087 7.64245 15.1087 7.2078 14.674L6.14221 13.6084C5.95993 13.4261 5.6024 13.2789 5.35002 13.2789H3.84276C3.22584 13.2789 2.72107 12.7741 2.72107 12.1572V10.65C2.72107 10.3906 2.57385 10.0331 2.39158 9.8578Z" stroke="currentColor" stroke-linecap="round" stroke-linejoin="round"/></g></symbol><symbol id="icon-edit" viewBox="0 0 14 14"><g fill="none"><path d="M6.92156 3.08853C7.24415 5.08374 8.92461 6.60906 11.0102 6.81147M7.94934 2.04032L1.79017 8.32234C1.5576 8.5609 1.33254 9.03079 1.28753 9.35609L1.00995 11.6983C0.912428 12.5441 1.5426 13.1224 2.41284 12.9778L4.82849 12.5802C5.16609 12.5224 5.63871 12.2838 5.87128 12.0381L12.0305 5.75604C13.0957 4.67168 13.5759 3.43552 11.9179 1.92465C10.2675 0.428245 9.01463 0.955964 7.94934 2.04032Z" stroke="currentColor" stroke-miterlimit="10" stroke-linecap="round" stroke-linejoin="round"/></g></symbol><symbol id="icon-flash" viewBox="0 0 20 29"><g fill="none"><path d="M18.1227 12.6442H13.8758V2.20507C13.8758 -0.230712 12.6251 -0.72367 11.0995 1.10317L10 2.42256L0.695297 13.5866C-0.582897 15.1089 -0.0468803 16.3558 1.87728 16.3558H6.12419V26.7949C6.12419 29.2307 7.37489 29.7237 8.90048 27.8968L10 26.5774L19.3047 15.4134C20.5829 13.8911 20.0469 12.6442 18.1227 12.6442Z" fill="#333333"/></g></symbol><symbol id="icon-friends" viewBox="0 0 30 21"><g fill="none"><path d="M22.5 10.2951C24.7784 10.2951 26.6254 8.46058 26.6254 6.19756C26.6254 3.93454 24.7784 2.1 22.5 2.1C20.2216 2.1 18.3746 3.93454 18.3746 6.19756C18.3746 8.46058 20.2216 10.2951 22.5 10.2951Z" fill="currentColor"/><path d="M9.64286 10.2439C12.5722 10.2439 14.947 7.95073 14.947 5.12195C14.947 2.29318 12.5722 0 9.64286 0C6.71348 0 4.33876 2.29318 4.33876 5.12195C4.33876 7.95073 6.71348 10.2439 9.64286 10.2439Z" fill="currentColor"/><path d="M9.64286 12.8049C9.52291 12.8049 9.40347 12.8066 9.28457 12.8101C4.13499 12.9606 0 16.3425 0 20.4878C0 20.7746 0.23338 21 0.53041 21H18.7553C19.0523 21 19.2857 20.7746 19.2857 20.4878C19.2857 20.307 19.2778 20.1277 19.2624 19.95C19.2313 19.5927 19.1694 19.2422 19.0789 18.9C18.6759 17.3762 17.7048 16.0183 16.3515 14.973C14.6142 13.6312 12.247 12.8049 9.64286 12.8049Z" fill="currentColor"/><path fill-rule="evenodd" clip-rule="evenodd" d="M17.4923 13.9177C18.8214 12.9394 20.5777 12.3439 22.5 12.3439C26.6337 12.3439 30 15.0975 30 18.4902C30 18.7197 29.8185 18.9 29.5875 18.9H21.394C21.1529 16.8579 19.6704 15.0676 17.4923 13.9177ZM19.2624 19.95C19.2313 19.5927 19.1694 19.2422 19.0789 18.9C18.6759 17.3762 17.7048 16.0183 16.3515 14.973C14.6142 13.6312 12.247 12.8049 9.64286 12.8049C9.52291 12.8049 9.40347 12.8066 9.28457 12.8101C5.17731 13.6013 2.14286 16.2931 2.14286 19.489C2.14286 19.7472 2.37624 19.95 2.67327 19.95H19.2624Z" fill="currentColor"/></g></symbol><symbol id="icon-heart-filled" viewBox="0 0 12 11"><g fill="none"><path d="M6.372 10.9444C6.168 11.0185 5.832 11.0185 5.628 10.9444C3.888 10.3326 0 7.78034 0 3.45449C0 1.54494 1.494 0 3.336 0C4.428 0 5.394 0.54382 6 1.38427C6.606 0.54382 7.578 0 8.664 0C10.506 0 12 1.54494 12 3.45449C12 7.78034 8.112 10.3326 6.372 10.9444Z" fill="currentColor"/></g></symbol><symbol id="icon-heart" viewBox="0 0 14 13"><g fill="none"><path d="M7.372 11.9444C7.168 12.0185 6.832 12.0185 6.628 11.9444C4.888 11.3326 1 8.78034 1 4.45449C1 2.54494 2.494 1 4.336 1C5.428 1 6.394 1.54382 7 2.38427C7.606 1.54382 8.578 1 9.664 1C11.506 1 13 2.54494 13 4.45449C13 8.78034 9.112 11.3326 7.372 11.9444Z" stroke="currentColor" stroke-linecap="round" stroke-linejoin="round"/></g></symbol><symbol id="icon-home" viewBox="0 0 18 18"><g fill="none"><path fill-rule="evenodd" clip-rule="evenodd" d="M11.0499 0.709047L16.2288 4.33646C17.2178 5.02953 18 6.5237 18 7.73884V13.8415C18 16.1368 16.1389 18 13.8462 18H4.15385C1.86114 18 0 16.1278 0 13.8325V7.62183C0 6.4877 0.71029 5.04754 1.60939 4.34546L6.11389 0.82606C7.47153 -0.227059 9.63836 -0.281065 11.0499 0.709047ZM9.00001 12.5992C9.99313 12.5992 10.7982 11.7932 10.7982 10.799C10.7982 9.8048 9.99313 8.99882 9.00001 8.99882C8.00689 8.99882 7.20181 9.8048 7.20181 10.799C7.20181 11.7932 8.00689 12.5992 9.00001 12.5992Z" fill="currentColor"/></g></symbol><symbol id="icon-import-video" viewBox="0 0 22 22"><g fill="none"><path d="M21 8V14C21 19 19 21 14 21H8C3 21 1 19 1 14V8C1 3 3 1 8 1H14M17 1V7M17 7L19 5M17 7L15 5M8.1 9.52C8.1 7.61 9.45 6.84 11.1 7.79L13.66 9.27C15.31 10.22 15.31 11.78 13.66 12.73L11.1 14.21C9.45 15.16 8.1 14.38 8.1 12.48V9.52Z" stroke="currentColor" stroke-linecap="round" stroke-linejoin="round"/></g></symbol><symbol id="icon-import" viewBox="0 0 22 22"><g fill="none"><path d="M12 1H8C3 1 1 3 1 8V14C1 19 3 21 8 21H14C19 21 21 19 21 14V9M17 1V7M17 7L19 5M17 7L15 5M1.67 17.95L6.6 14.64C7.39 14.11 8.53 14.17 9.24 14.78L9.57 15.07C10.35 15.74 11.61 15.74 12.39 15.07L16.55 11.5C17.33 10.83 18.59 10.83 19.37 11.5L21 12.9M10 7C10 8.10457 9.10457 9 8 9C6.89543 9 6 8.10457 6 7C6 5.89543 6.89543 5 8 5C9.10457 5 10 5.89543 10 7Z" stroke="currentColor" stroke-linecap="round" stroke-linejoin="round"/></g></symbol><symbol id="icon-info" viewBox="0 0 18 18"><g fill="none"><path d="M9 5.8V9.8M8.99561 12.2H9.00279M9 17C13.4 17 17 13.4 17 9C17 4.6 13.4 1 9 1C4.6 1 1 4.6 1 9C1 13.4 4.6 17 9 17Z" stroke="currentColor" stroke-linecap="round" stroke-linejoin="round"/></g></symbol><symbol id="icon-invite" viewBox="0 0 43 46"><g fill="none"><circle cx="21" cy="25" r="20.5" stroke="currentColor"/><path d="M25.144 20C23.776 20 22.144 20.4815 22.144 22.7778V27.2222C22.144 29.5185 23.776 30 25.144 30C26.512 30 28.144 29.5185 28.144 27.2222V22.7778C28.144 20.4815 26.512 20 25.144 20Z" fill="currentColor"/><path d="M16.856 20C15.488 20 13.856 20.4815 13.856 22.7778V27.2222C13.856 29.5185 15.488 30 16.856 30C18.224 30 19.856 29.5185 19.856 27.2222V22.7778C19.856 20.4815 18.224 20 16.856 20Z" fill="currentColor"/><path d="M22.144 24.4444H19.856V25.5556H22.144V24.4444Z" fill="currentColor"/><path d="M29.4 27.4074C29.072 27.4074 28.8 27.1556 28.8 26.8519V23.1481C28.8 22.8444 29.072 22.5926 29.4 22.5926C29.728 22.5926 30 22.8444 30 23.1481V26.8519C30 27.1556 29.728 27.4074 29.4 27.4074Z" fill="currentColor"/><path d="M12.6 27.4074C12.272 27.4074 12 27.1556 12 26.8519V23.1481C12 22.8444 12.272 22.5926 12.6 22.5926C12.928 22.5926 13.2 22.8444 13.2 23.1481V26.8519C13.2 27.1556 12.928 27.4074 12.6 27.4074Z" fill="currentColor"/><path d="M42 9C42 13.4183 38.4183 17 34 17C29.5817 17 26 13.4183 26 9C26 4.58172 29.5817 1 34 1C37.4117 1 40.3245 3.13558 41.4747 6.14286C41.8141 7.03017 42 7.99337 42 9Z" fill="white"/><path d="M41.4747 6.14286L41.0077 6.32147V6.32147L41.4747 6.14286ZM34.5001 6.00001C34.5001 5.72387 34.2762 5.50001 34.0001 5.5C33.7239 5.49999 33.5001 5.72385 33.5001 5.99999L34.5001 6.00001ZM33.5001 12C33.5001 12.2762 33.7239 12.5 34.0001 12.5C34.2762 12.5 34.5001 12.2761 34.5001 12L33.5001 12ZM37 9.5C37.2761 9.5 37.5 9.27614 37.5 9C37.5 8.72386 37.2761 8.5 37 8.5V9.5ZM31 8.5C30.7239 8.5 30.5 8.72386 30.5 9C30.5 9.27614 30.7239 9.5 31 9.5V8.5ZM41.5 9C41.5 13.1421 38.1421 16.5 34 16.5V17.5C38.6944 17.5 42.5 13.6944 42.5 9H41.5ZM34 16.5C29.8579 16.5 26.5 13.1421 26.5 9H25.5C25.5 13.6944 29.3056 17.5 34 17.5V16.5ZM26.5 9C26.5 4.85786 29.8579 1.5 34 1.5V0.5C29.3056 0.5 25.5 4.30558 25.5 9H26.5ZM34 1.5C37.1976 1.5 39.9291 3.50133 41.0077 6.32147L41.9417 5.96424C40.7199 2.76983 37.6257 0.5 34 0.5V1.5ZM41.0077 6.32147C41.3256 7.15266 41.5 8.05538 41.5 9H42.5C42.5 7.93137 42.3026 6.90769 41.9417 5.96424L41.0077 6.32147ZM33.5001 5.99999L33.5 8.99999L34.5 9.00001L34.5001 6.00001L33.5001 5.99999ZM33.5 9.00001L33.5001 12L34.5001 12L34.5 8.99999L33.5 9.00001ZM34 9.5H37V8.5H34V9.5ZM34 8.5H31V9.5H34V8.5Z" fill="currentColor"/></g></symbol><symbol id="icon-location" viewBox="0 0 14 16"><g fill="none"><path d="M7.00001 8.62182C8.19902 8.62182 9.17101 7.69035 9.17101 6.54132C9.17101 5.39229 8.19902 4.46083 7.00001 4.46083C5.801 4.46083 4.82901 5.39229 4.82901 6.54132C4.82901 7.69035 5.801 8.62182 7.00001 8.62182Z" stroke="currentColor"/><path d="M1.16892 5.3277C2.53971 -0.447009 11.4673 -0.440341 12.8311 5.33437C13.6313 8.72184 11.4325 12.256 9.50502 14.0298C8.10639 15.3234 5.89363 15.3234 4.48805 14.0298C2.56755 12.256 0.368708 8.71517 1.16892 5.3277Z" stroke="currentColor"/></g></symbol><symbol id="icon-logotype" viewBox="0 0 60 60"><g fill="none"><path d="M0 30C16.5667 30 30 43.4333 30 60V30H60C43.4333 30 30 16.5667 30 0C30 16.5667 16.5667 30 0 30Z" fill="#181818"/><path d="M30 60C30 43.4333 16.5667 30 0 30V60H30Z" fill="#C5EC2A"/><path d="M30 60C46.5667 60 60 46.5667 60 30H30V60Z" fill="#C5EC2A"/><path d="M30 0C30 16.5667 16.5667 30 0 30V0H30Z" fill="#C5EC2A"/><path d="M60 30C43.4333 30 30 16.5667 30 0H60V30Z" fill="#C5EC2A"/></g></symbol><symbol id="icon-maximize" viewBox="0 0 20 20"><g fill="none"><path d="M19 7V1M19 1H13M19 1L11.5 8.5M1 13V19M1 19H7M1 19L8.5 11.5" stroke="currentColor" stroke-linecap="round" stroke-linejoin="round"/></g></symbol><symbol id="icon-minus" viewBox="0 0 14 2"><g fill="none"><path d="M1 1H13" stroke-linecap="round" stroke-linejoin="round"/></g></symbol><symbol id="icon-notification" viewBox="0 0 14 18"><g fill="none"><path d="M13.6776 11.241L12.7676 9.747C12.5764 9.414 12.4035 8.784 12.4035 8.415V6.138C12.4035 4.023 11.1476 2.196 9.33664 1.341C8.86341 0.513 7.98975 0 6.98869 0C5.99673 0 5.10487 0.531 4.63164 1.368C2.85703 2.241 1.62845 4.05 1.62845 6.138V8.415C1.62845 8.784 1.45554 9.414 1.26443 9.738L0.345272 11.241C-0.0187507 11.844 -0.100656 12.51 0.126858 13.122C0.345272 13.725 0.864005 14.193 1.53745 14.418C3.30296 15.012 5.15947 15.3 7.01599 15.3C8.87251 15.3 10.729 15.012 12.4945 14.427C13.1316 14.22 13.623 13.743 13.8596 13.122C14.0962 12.501 14.0325 11.817 13.6776 11.241Z" fill="currentColor"/><path d="M9.57325 16.209C9.19103 17.253 8.18086 18 6.99779 18C6.27884 18 5.569 17.712 5.06847 17.199C4.77725 16.929 4.55884 16.569 4.43143 16.2C4.54974 16.218 4.66804 16.227 4.79545 16.245C5.00476 16.272 5.22318 16.299 5.44159 16.317C5.96032 16.362 6.48816 16.389 7.01599 16.389C7.53472 16.389 8.05346 16.362 8.56309 16.317C8.7542 16.299 8.94531 16.29 9.12732 16.263C9.27293 16.245 9.41854 16.227 9.57325 16.209Z" fill="currentColor"/></g></symbol><symbol id="icon-pin-user" viewBox="0 0 42 51"><g fill="none"><path fill-rule="evenodd" clip-rule="evenodd" d="M40.437 16.4067C35.8909 -4.11976 6.13237 -4.14347 1.56306 16.383C-1.10431 28.424 6.22515 40.2464 12.6268 46.5513C17.3121 51.1496 24.688 51.1496 29.3501 46.5513C35.7749 40.2464 43.1044 28.4477 40.437 16.4067Z" fill="#333333" stroke="#C5EC2A"/><path d="M21 23.7805C23.4303 23.7805 25.4004 21.8149 25.4004 19.3902C25.4004 16.9656 23.4303 15 21 15C18.5697 15 16.5996 16.9656 16.5996 19.3902C16.5996 21.8149 18.5697 23.7805 21 23.7805Z" fill="#C5EC2A"/><path d="M21 25.9756C16.5908 25.9756 13 28.9259 13 32.561C13 32.8068 13.1936 33 13.44 33H28.56C28.8064 33 29 32.8068 29 32.561C29 28.9259 25.4092 25.9756 21 25.9756Z" fill="#C5EC2A"/></g></symbol><symbol id="icon-pin" viewBox="0 0 99 72"><g fill="none"><path d="M2.63184 69.0479H4.56641L6.33008 62.1162C6.37109 61.9613 6.40299 61.8177 6.42578 61.6855C6.44857 61.5534 6.46908 61.4098 6.4873 61.2549H6.54199C6.56022 61.4098 6.58073 61.5534 6.60352 61.6855C6.63086 61.8177 6.66504 61.9613 6.70605 62.1162L8.46973 69.0479H10.4453L12.7969 59.0469H11.1357L9.65234 65.9648C9.62044 66.1198 9.59538 66.2451 9.57715 66.3408C9.56348 66.4365 9.54753 66.5596 9.5293 66.71H9.46777C9.4541 66.5596 9.44043 66.4365 9.42676 66.3408C9.41309 66.2451 9.38574 66.1198 9.34473 65.9648L7.61523 59.0469H5.61914L3.92383 65.9717C3.88737 66.1266 3.8623 66.252 3.84863 66.3477C3.83496 66.4388 3.81901 66.5596 3.80078 66.71H3.73926C3.72103 66.5596 3.70508 66.4388 3.69141 66.3477C3.67773 66.252 3.65267 66.1266 3.61621 65.9717L2.07129 59.0469H0.25293L2.63184 69.0479ZM13.9007 64.3379C13.9007 65.9056 14.3086 67.1087 15.1244 67.9473C15.9401 68.7858 16.9883 69.2051 18.2689 69.2051C19.5541 69.2051 20.6068 68.7858 21.4271 67.9473C22.2474 67.1087 22.6576 65.9056 22.6576 64.3379V63.709C22.6576 62.1413 22.2474 60.9382 21.4271 60.0996C20.6068 59.2611 19.5541 58.8418 18.2689 58.8418C16.9883 58.8418 15.9401 59.2611 15.1244 60.0996C14.3086 60.9382 13.9007 62.1413 13.9007 63.709V64.3379ZM15.7738 64.4609V63.5859C15.7738 62.5059 15.9994 61.6878 16.4505 61.1318C16.9063 60.5713 17.5124 60.291 18.2689 60.291C19.03 60.291 19.6384 60.5713 20.0941 61.1318C20.5544 61.6878 20.7845 62.5059 20.7845 63.5859V64.4609C20.7845 65.541 20.5544 66.3613 20.0941 66.9219C19.6384 67.4779 19.03 67.7559 18.2689 67.7559C17.5124 67.7559 16.9063 67.4779 16.4505 66.9219C15.9994 66.3613 15.7738 65.541 15.7738 64.4609ZM24.6159 69H26.448V65.2402H28.1091C29.2393 65.2402 30.1166 64.96 30.7409 64.3994C31.3698 63.8389 31.6843 63.0778 31.6843 62.1162C31.6843 61.1592 31.3721 60.4095 30.7478 59.8672C30.1234 59.3203 29.2461 59.0469 28.1159 59.0469H24.6159V69ZM26.448 63.8525V60.4414H28.0681C28.7243 60.4414 29.1846 60.5964 29.4489 60.9062C29.7178 61.2116 29.8523 61.6195 29.8523 62.1299C29.8523 62.6403 29.7178 63.055 29.4489 63.374C29.1846 63.693 28.7243 63.8525 28.0681 63.8525H26.448ZM30.1325 69H32.1833L29.6609 64.2764L27.7536 64.4062L30.1325 69ZM33.5743 69H39.8907V67.5781H35.4063V59.0469H33.5743V69ZM41.4252 69H44.6381C45.9552 69 47.0558 68.5876 47.9399 67.7627C48.824 66.9333 49.2661 65.7917 49.2661 64.3379V63.709C49.2661 62.2552 48.824 61.1159 47.9399 60.291C47.0558 59.4616 45.9552 59.0469 44.6381 59.0469H41.4252V69ZM43.2504 67.5986V60.4551H44.6176C45.4516 60.4551 46.1238 60.7331 46.6342 61.2891C47.1446 61.8405 47.3998 62.638 47.3998 63.6816V64.3652C47.3998 65.4089 47.1446 66.2087 46.6342 66.7646C46.1238 67.3206 45.4516 67.5986 44.6176 67.5986H43.2504ZM54.2218 66.2109C54.2218 67.168 54.575 67.9062 55.2814 68.4258C55.9923 68.9453 56.9175 69.2051 58.0568 69.2051C59.2007 69.2051 60.1144 68.943 60.798 68.4189C61.4816 67.8949 61.8234 67.1794 61.8234 66.2725C61.8234 65.3975 61.5545 64.7275 61.0168 64.2627C60.479 63.7933 59.6883 63.415 58.6447 63.1279C57.6466 62.8545 56.9972 62.6175 56.6964 62.417C56.4002 62.2165 56.2521 61.9294 56.2521 61.5557C56.2521 61.1637 56.3934 60.8538 56.6759 60.626C56.9585 60.3981 57.3983 60.2842 57.9953 60.2842C58.5877 60.2842 59.0343 60.4255 59.3351 60.708C59.6405 60.986 59.7931 61.3529 59.7931 61.8086V61.9385H61.6252V61.7949C61.6252 60.9154 61.2948 60.2044 60.6339 59.6621C59.9731 59.1152 59.0913 58.8418 57.9884 58.8418C56.881 58.8418 56.0037 59.1038 55.3566 59.6279C54.714 60.1475 54.3927 60.8288 54.3927 61.6719C54.3973 62.474 54.6548 63.1006 55.1652 63.5518C55.6802 64.0029 56.4663 64.3721 57.5236 64.6592C58.5216 64.9235 59.1779 65.1719 59.4923 65.4043C59.8114 65.6367 59.9709 65.9603 59.9709 66.375C59.9709 66.7943 59.8045 67.1315 59.4718 67.3867C59.1437 67.6419 58.6698 67.7695 58.05 67.7695C57.4302 67.7695 56.9471 67.6396 56.6007 67.3799C56.2589 67.1156 56.088 66.7191 56.088 66.1904V66.0605H54.2218V66.2109ZM63.5288 69H65.3609V65.3701H67.1519C68.2912 65.3701 69.1662 65.0898 69.7769 64.5293C70.3876 63.9642 70.6929 63.1872 70.6929 62.1982C70.6929 61.2048 70.3876 60.4323 69.7769 59.8809C69.1662 59.3249 68.2935 59.0469 67.1587 59.0469H63.5288V69ZM65.3609 63.9688V60.4551H67.0288C67.717 60.4551 68.1932 60.6146 68.4575 60.9336C68.7264 61.248 68.8609 61.6696 68.8609 62.1982C68.8609 62.7314 68.7264 63.1598 68.4575 63.4834C68.1932 63.807 67.717 63.9688 67.0288 63.9688H65.3609ZM71.8925 64.3379C71.8925 65.9056 72.3003 67.1087 73.1161 67.9473C73.9319 68.7858 74.98 69.2051 76.2606 69.2051C77.5458 69.2051 78.5985 68.7858 79.4188 67.9473C80.2391 67.1087 80.6493 65.9056 80.6493 64.3379V63.709C80.6493 62.1413 80.2391 60.9382 79.4188 60.0996C78.5985 59.2611 77.5458 58.8418 76.2606 58.8418C74.98 58.8418 73.9319 59.2611 73.1161 60.0996C72.3003 60.9382 71.8925 62.1413 71.8925 63.709V64.3379ZM73.7655 64.4609V63.5859C73.7655 62.5059 73.9911 61.6878 74.4423 61.1318C74.898 60.5713 75.5041 60.291 76.2606 60.291C77.0217 60.291 77.6301 60.5713 78.0858 61.1318C78.5461 61.6878 78.7763 62.5059 78.7763 63.5859V64.4609C78.7763 65.541 78.5461 66.3613 78.0858 66.9219C77.6301 67.4779 77.0217 67.7559 76.2606 67.7559C75.5041 67.7559 74.898 67.4779 74.4423 66.9219C73.9911 66.3613 73.7655 65.541 73.7655 64.4609ZM82.6077 69H84.4397V65.2402H86.1008C87.231 65.2402 88.1083 64.96 88.7327 64.3994C89.3616 63.8389 89.676 63.0778 89.676 62.1162C89.676 61.1592 89.3638 60.4095 88.7395 59.8672C88.1151 59.3203 87.2379 59.0469 86.1077 59.0469H82.6077V69ZM84.4397 63.8525V60.4414H86.0598C86.7161 60.4414 87.1763 60.5964 87.4407 60.9062C87.7095 61.2116 87.844 61.6195 87.844 62.1299C87.844 62.6403 87.7095 63.055 87.4407 63.374C87.1763 63.693 86.7161 63.8525 86.0598 63.8525H84.4397ZM88.1243 69H90.175L87.6526 64.2764L85.7454 64.4062L88.1243 69ZM90.0963 60.4688H93.1383V69H94.9771V60.4688H98.0123V59.0469H90.0963V60.4688Z" fill="#333333"/><path fill-rule="evenodd" clip-rule="evenodd" d="M68.437 16.4067C63.8909 -4.11976 34.1324 -4.14347 29.5631 16.383C26.8957 28.424 34.2252 40.2464 40.6268 46.5513C45.3121 51.1496 52.688 51.1496 57.3501 46.5513C63.7749 40.2464 71.1044 28.4477 68.437 16.4067Z" fill="#333333" stroke="#C5EC2A"/><path d="M52.2231 20C51.1591 20 49.8898 20.3852 49.8898 22.2222V25.7778C49.8898 27.6148 51.1591 28 52.2231 28C53.2871 28 54.5564 27.6148 54.5564 25.7778V22.2222C54.5564 20.3852 53.2871 20 52.2231 20Z" fill="#C5EC2A"/><path d="M45.7769 20C44.7129 20 43.4436 20.3852 43.4436 22.2222V25.7778C43.4436 27.6148 44.7129 28 45.7769 28C46.8409 28 48.1102 27.6148 48.1102 25.7778V22.2222C48.1102 20.3852 46.8409 20 45.7769 20Z" fill="#C5EC2A"/><path d="M49.8898 23.5556H48.1102V24.4444H49.8898V23.5556Z" fill="#C5EC2A"/><path d="M55.5333 25.9259C55.2782 25.9259 55.0667 25.7244 55.0667 25.4815V22.5185C55.0667 22.2756 55.2782 22.0741 55.5333 22.0741C55.7884 22.0741 56 22.2756 56 22.5185V25.4815C56 25.7244 55.7884 25.9259 55.5333 25.9259Z" fill="#C5EC2A"/><path d="M42.4667 25.9259C42.2116 25.9259 42 25.7244 42 25.4815V22.5185C42 22.2756 42.2116 22.0741 42.4667 22.0741C42.7218 22.0741 42.9333 22.2756 42.9333 22.5185V25.4815C42.9333 25.7244 42.7218 25.9259 42.4667 25.9259Z" fill="#C5EC2A"/></g></symbol><symbol id="icon-plus" viewBox="0 0 14 14"><g fill="none"><path d="M1 7H13M7 13V1" stroke-linecap="round" stroke-linejoin="round"/></g></symbol><symbol id="icon-ranking" viewBox="0 0 29 30"><g fill="none"><path d="M6.7715 18.41H2.9C1.305 18.41 0 19.7139 0 21.3075V28.5512C0 29.3481 0.6525 30 1.45 30H6.7715C7.569 30 8.2215 29.3481 8.2215 28.5512V19.8587C8.2215 19.0619 7.569 18.41 6.7715 18.41Z" fill="currentColor"/><path d="M16.4285 12.615H12.557C10.962 12.615 9.657 13.9189 9.657 15.5125V28.5512C9.657 29.3481 10.3095 30 11.107 30H17.8785C18.676 30 19.3285 29.3481 19.3285 28.5512V15.5125C19.3285 13.9189 18.038 12.615 16.4285 12.615Z" fill="currentColor"/><path d="M26.1 22.7562H22.2285C21.431 22.7562 20.7785 23.4082 20.7785 24.205V28.5512C20.7785 29.3481 21.431 30 22.2285 30H27.55C28.3475 30 29 29.3481 29 28.5512V25.6537C29 24.0601 27.695 22.7562 26.1 22.7562Z" fill="currentColor"/><path d="M18.8645 5.15393C19.314 4.70482 19.488 4.16878 19.343 3.70518C19.198 3.24158 18.7485 2.90837 18.1105 2.80695L16.7185 2.57515C16.6605 2.57515 16.53 2.47374 16.501 2.41579L15.7325 0.880116C15.1525 -0.293372 13.833 -0.293372 13.253 0.880116L12.4845 2.41579C12.47 2.47374 12.3395 2.57515 12.2815 2.57515L10.8895 2.80695C10.2515 2.90837 9.8165 3.24158 9.657 3.70518C9.512 4.16878 9.686 4.70482 10.1355 5.15393L11.2085 6.24049C11.2665 6.28395 11.31 6.4578 11.2955 6.51575L10.991 7.84861C10.759 8.84824 11.136 9.29736 11.3825 9.47121C11.629 9.64506 12.1655 9.87686 13.05 9.35531L14.355 8.58747C14.413 8.54401 14.6015 8.54401 14.6595 8.58747L15.95 9.35531C16.356 9.60159 16.6895 9.67403 16.9505 9.67403C17.255 9.67403 17.4725 9.55813 17.603 9.47121C17.8495 9.29736 18.2265 8.84824 17.9945 7.84861L17.69 6.51575C17.6755 6.44332 17.719 6.28395 17.777 6.24049L18.8645 5.15393Z" fill="currentColor"/></g></symbol><symbol id="icon-search" viewBox="0 0 20 20"><g fill="none"><path d="M19 19L17.2 17.2M18.1 9.55C18.1 14.272 14.272 18.1 9.55 18.1C4.82797 18.1 1 14.272 1 9.55C1 4.82797 4.82797 1 9.55 1C14.272 1 18.1 4.82797 18.1 9.55Z" stroke="currentColor" stroke-linecap="round" stroke-linejoin="round"/></g></symbol><symbol id="icon-shopping-cart" viewBox="0 0 29 30"><g fill="none"><path d="M21.4194 30C22.7996 30 23.9184 28.8939 23.9184 27.5294C23.9184 26.1649 22.7996 25.0588 21.4194 25.0588C20.0393 25.0588 18.9205 26.1649 18.9205 27.5294C18.9205 28.8939 20.0393 30 21.4194 30Z" fill="currentColor"/><path d="M9.99574 30C11.3759 30 12.4947 28.8939 12.4947 27.5294C12.4947 26.1649 11.3759 25.0588 9.99574 25.0588C8.61561 25.0588 7.4968 26.1649 7.4968 27.5294C7.4968 28.8939 8.61561 30 9.99574 30Z" fill="currentColor"/><path d="M5.12639 3.79765L4.84079 7.25647C4.78367 7.92 5.31202 8.47059 5.98316 8.47059H27.8453C28.445 8.47059 28.9448 8.01882 28.9876 7.42588C29.1733 4.92706 27.2455 2.89412 24.718 2.89412H7.16837C7.02558 2.27294 6.73998 1.68 6.29732 1.18588C5.58333 0.437647 4.58376 0 3.55563 0H1.07097C0.485507 0 0 0.48 0 1.05882C0 1.63765 0.485507 2.11765 1.07097 2.11765H3.55563C3.9983 2.11765 4.41241 2.30118 4.71228 2.61176C5.01215 2.93647 5.15495 3.36 5.12639 3.79765Z" fill="currentColor"/><path d="M27.5026 10.5882H5.59761C4.99787 10.5882 4.51236 11.04 4.45524 11.6188L3.94118 17.76C3.74126 20.1741 5.65473 22.2353 8.09655 22.2353H23.9755C26.1174 22.2353 28.0023 20.4988 28.1594 18.3812L28.6306 11.7882C28.6878 11.1388 28.1737 10.5882 27.5026 10.5882Z" fill="currentColor"/></g></symbol><symbol id="icon-sort-down" viewBox="0 0 18 12"><g fill="none"><path d="M1 11H17M1 6H13M1 1H7" stroke="currentColor" stroke-linecap="round"/></g></symbol><symbol id="icon-sort-up" viewBox="0 0 18 12"><g fill="none"><path d="M1 1H17H1Z" fill="#8E8E8E"/><path d="M1 6H13H1Z" fill="#8E8E8E"/><path d="M1 11H7H1Z" fill="#8E8E8E"/><path d="M1 1H17M1 6H13M1 11H7" stroke="currentColor" stroke-linecap="round"/></g></symbol><symbol id="icon-star" viewBox="0 0 16 16"><g fill="none"><path d="M9.38211 1.15534L10.79 3.9943C10.9819 4.3895 11.4939 4.76856 11.9258 4.84115L14.4775 5.2686C16.1094 5.54282 16.4933 6.73647 15.3175 7.914L13.3337 9.91417C12.9977 10.2529 12.8137 10.9062 12.9177 11.374L13.4857 13.85C13.9336 15.8098 12.9017 16.568 11.1819 15.5437L8.79017 14.1162C8.35822 13.8581 7.6463 13.8581 7.20635 14.1162L4.81461 15.5437C3.1028 16.568 2.06292 15.8018 2.51087 13.85L3.07881 11.374C3.18279 10.9062 2.99881 10.2529 2.66285 9.91417L0.679071 7.914C-0.4888 6.73647 -0.112841 5.54282 1.51898 5.2686L4.0707 4.84115C4.49465 4.76856 5.00659 4.3895 5.19857 3.9943L6.60642 1.15534C7.37433 -0.385114 8.62219 -0.385114 9.38211 1.15534Z" fill="currentColor"/></g></symbol><symbol id="icon-teacher" viewBox="0 0 14 15"><g fill="none"><path d="M2.94134 8.20416L2.93497 11.2532C2.93497 12.0789 3.55926 12.9631 4.32369 13.2231L6.35581 13.9122C6.70617 14.0293 7.28587 14.0293 7.6426 13.9122L9.67472 13.2231C10.4392 12.9631 11.0634 12.0789 11.0634 11.2532V8.23667M12.9873 9.4524V5.55167M5.757 1.34538L1.9221 3.90036C0.692634 4.71951 0.692634 6.55286 1.9221 7.37201L5.757 9.92699C6.44499 10.3886 7.5789 10.3886 8.26689 9.92699L12.0827 7.37201C13.3058 6.55286 13.3058 4.72601 12.0827 3.90686L8.26689 1.35188C7.5789 0.883795 6.44499 0.883795 5.757 1.34538Z" stroke="currentColor" stroke-linecap="round" stroke-linejoin="round"/></g></symbol><symbol id="icon-trash" viewBox="0 0 16 18"><g fill="none"><path d="M15 4.184C12.41 3.92 9.80444 3.784 7.20667 3.784C5.66667 3.784 4.12667 3.864 2.58667 4.024L1 4.184M5.27778 3.376L5.44889 2.328C5.57333 1.568 5.66667 1 6.98111 1H9.01889C10.3333 1 10.4344 1.6 10.5511 2.336L10.7222 3.376M13.3278 6.712L12.8222 14.768C12.7367 16.024 12.6667 17 10.4967 17H5.50333C3.33333 17 3.26333 16.024 3.17778 14.768L2.67222 6.712M6.70111 12.6H9.29111M6.05556 9.4H9.94444" stroke="currentColor" stroke-linecap="round" stroke-linejoin="round"/></g></symbol><symbol id="icon-user" viewBox="0 0 16 18"><g fill="none"><path d="M8 8.78049C10.4303 8.78049 12.4004 6.81491 12.4004 4.39024C12.4004 1.96558 10.4303 0 8 0C5.5697 0 3.59956 1.96558 3.59956 4.39024C3.59956 6.81491 5.5697 8.78049 8 8.78049Z" fill="currentColor"/><path d="M8 10.9756C3.59076 10.9756 0 13.9259 0 17.561C0 17.8068 0.193619 18 0.440044 18H15.56C15.8064 18 16 17.8068 16 17.561C16 13.9259 12.4092 10.9756 8 10.9756Z" fill="currentColor"/></g></symbol><symbol id="icon-verify-bold" viewBox="0 0 12 12"><g fill="none"><path d="M11.7337 5.24419L10.9177 4.29643C10.7617 4.11647 10.6357 3.78056 10.6357 3.54062V2.52087C10.6357 1.88503 10.1136 1.36316 9.47759 1.36316H8.45753C8.22351 1.36316 7.88149 1.23719 7.70148 1.08123L6.75342 0.265434C6.33939 -0.0884779 5.66135 -0.0884779 5.24133 0.265434L4.29927 1.08723C4.11926 1.23719 3.77723 1.36316 3.54322 1.36316H2.50516C1.86912 1.36316 1.34708 1.88503 1.34708 2.52087V3.54661C1.34708 3.78056 1.22108 4.11647 1.07107 4.29643L0.261016 5.25019C-0.0870054 5.66408 -0.0870054 6.33592 0.261016 6.74981L1.07107 7.70357C1.22108 7.88353 1.34708 8.21945 1.34708 8.45339V9.47913C1.34708 10.115 1.86912 10.6368 2.50516 10.6368H3.54322C3.77723 10.6368 4.11926 10.7628 4.29927 10.9188L5.24733 11.7346C5.66135 12.0885 6.33939 12.0885 6.75942 11.7346L7.70748 10.9188C7.88749 10.7628 8.22351 10.6368 8.46353 10.6368H9.48359C10.1196 10.6368 10.6417 10.115 10.6417 9.47913V8.45939C10.6417 8.22544 10.7677 7.88353 10.9237 7.70357L11.7397 6.75581C12.0878 6.34191 12.0878 5.65809 11.7337 5.24419ZM8.49353 4.86628L5.59535 7.76356C5.51134 7.84754 5.39734 7.89553 5.27733 7.89553C5.15732 7.89553 5.04331 7.84754 4.95931 7.76356L3.50722 6.31192C3.33321 6.13797 3.33321 5.85004 3.50722 5.67608C3.68123 5.50212 3.96925 5.50212 4.14326 5.67608L5.27733 6.8098L7.85749 4.23044C8.0315 4.05649 8.31952 4.05649 8.49353 4.23044C8.66754 4.4044 8.66754 4.69233 8.49353 4.86628Z" fill="currentColor"/></g></symbol><symbol id="icon-verify" viewBox="0 0 14 14"><g fill="none"><path d="M4.82357 6.994L6.26902 8.44564L9.16594 5.54236M6.24503 1.26543C6.65888 0.911522 7.33662 0.911522 7.75647 1.26543L8.70411 2.08123C8.88404 2.23719 9.21992 2.36316 9.45983 2.36316H10.4794C11.1152 2.36316 11.637 2.88503 11.637 3.52087V4.54061C11.637 4.77456 11.763 5.11647 11.9189 5.29643L12.7346 6.24419C13.0885 6.65809 13.0885 7.33592 12.7346 7.75581L11.9189 8.70357C11.763 8.88353 11.637 9.21945 11.637 9.45939V10.4791C11.637 11.115 11.1152 11.6368 10.4794 11.6368H9.45983C9.22592 11.6368 8.88404 11.7628 8.70411 11.9188L7.75647 12.7346C7.34262 13.0885 6.66488 13.0885 6.24503 12.7346L5.29739 11.9188C5.11746 11.7628 4.78158 11.6368 4.54167 11.6368H3.50406C2.8683 11.6368 2.34649 11.115 2.34649 10.4791V9.45339C2.34649 9.21945 2.22054 8.88353 2.0706 8.70357L1.2609 7.74981C0.913033 7.33592 0.913033 6.66408 1.2609 6.25019L2.0706 5.29643C2.22054 5.11647 2.34649 4.78055 2.34649 4.54661V3.51487C2.34649 2.87903 2.8683 2.35716 3.50406 2.35716H4.54167C4.77558 2.35716 5.11746 2.23119 5.29739 2.07523L6.24503 1.26543Z" stroke="currentColor" stroke-linecap="round" stroke-linejoin="round"/></g></symbol><symbol id="icon-wallet" viewBox="0 0 31 28"><g fill="none"><path d="M16.95 9.41176H8.24999M28.55 17.1353C29.362 17.1047 30 16.4165 30 15.5753V12.4247C30 11.5835 29.362 10.8953 28.55 10.8647M28.55 17.1353H25.708C24.142 17.1353 22.7065 15.927 22.576 14.2753C22.489 13.3118 22.837 12.4094 23.446 11.7823C23.9825 11.2012 24.722 10.8647 25.534 10.8647H28.55M28.55 17.1353L28.55 19.3529C28.55 23.9412 25.65 27 21.3 27H8.24999C3.9 27 1 23.9412 1 19.3529V8.64706C1 4.48706 3.378 1.58117 7.07549 1.09176C7.45249 1.03058 7.84399 1 8.24999 1H21.3C21.677 1 22.0395 1.01528 22.3875 1.07645C26.1285 1.53528 28.55 4.45647 28.55 8.64706L28.55 10.8647" stroke="currentColor" stroke-linecap="round" stroke-linejoin="round"/></g></symbol><symbol id="icon-weight" viewBox="0 0 14 8"><g fill="none"><path d="M10.2231 0C9.15911 0 7.88978 0.385185 7.88978 2.22222V5.77778C7.88978 7.61482 9.15911 8 10.2231 8C11.2871 8 12.5564 7.61482 12.5564 5.77778V2.22222C12.5564 0.385185 11.2871 0 10.2231 0Z" fill="currentColor"/><path d="M3.77689 0C2.71289 0 1.44356 0.385185 1.44356 2.22222V5.77778C1.44356 7.61482 2.71289 8 3.77689 8C4.84089 8 6.11022 7.61482 6.11022 5.77778V2.22222C6.11022 0.385185 4.84089 0 3.77689 0Z" fill="currentColor"/><path d="M7.88978 3.55556H6.11022V4.44444H7.88978V3.55556Z" fill="currentColor"/><path d="M13.5333 5.92593C13.2782 5.92593 13.0667 5.72444 13.0667 5.48148V2.51852C13.0667 2.27556 13.2782 2.07407 13.5333 2.07407C13.7884 2.07407 14 2.27556 14 2.51852V5.48148C14 5.72444 13.7884 5.92593 13.5333 5.92593Z" fill="currentColor"/><path d="M0.466667 5.92593C0.211556 5.92593 0 5.72444 0 5.48148V2.51852C0 2.27556 0.211556 2.07407 0.466667 2.07407C0.721778 2.07407 0.933333 2.27556 0.933333 2.51852V5.48148C0.933333 5.72444 0.721778 5.92593 0.466667 5.92593Z" fill="currentColor"/></g></symbol><symbol id="iomoney-logo-disabled" viewBox="0 0 106 24"><g fill="none"><path d="M93.1269 12.0691C93.1269 9.12539 90.9406 6.74414 87.8526 6.74414C84.8257 6.74414 82.6704 9.03389 82.6704 12.1801C82.6704 15.3421 84.8868 17.6476 88.0668 17.6476C90.0845 17.6476 91.7813 16.7281 92.8361 14.8591L90.6962 13.8466C90.192 14.7811 89.0908 15.3886 88.0668 15.3886C86.7676 15.3886 85.2696 14.3919 85.1776 13.0059H93.0503C93.1005 12.6962 93.1261 12.383 93.1269 12.0691ZM85.2232 11.1691C85.4073 9.76739 86.3547 8.84864 87.8681 8.84864C89.3661 8.84864 90.2833 9.74864 90.4055 11.1691H85.2232Z" fill="black"/><path d="M63.6579 6.7417C60.5545 6.7417 58.3535 9.01645 58.3535 12.2249C58.3535 15.4019 60.5545 17.6452 63.6889 17.6452C66.8379 17.6452 69.0389 15.4019 69.0389 12.2714C69.0389 9.0472 66.7768 6.7417 63.6579 6.7417ZM63.6889 15.2617C62.129 15.2617 61.1662 14.0782 61.1662 12.2399C61.1662 10.3709 62.1445 9.0937 63.6889 9.0937C65.2479 9.0937 66.2262 10.3552 66.2262 12.2399C66.2262 14.0939 65.2634 15.2617 63.6889 15.2617Z" fill="black"/><path d="M52.6076 6.74481C51.3363 6.74481 50.3786 7.18731 49.421 8.28456H49.1066C48.4633 7.29381 47.4136 6.74481 46.2358 6.74481C45.6478 6.73895 45.0668 6.87549 44.5406 7.14319C44.0145 7.41088 43.5583 7.80208 43.2097 8.28456H42.8953L42.8799 8.26956V6.95856H40.249V17.4166H43.0919V12.0346C43.0919 10.2968 43.8103 9.27531 45.0521 9.27531C46.2042 9.27531 46.9521 10.1446 46.9521 11.4706V17.4166H49.8096V12.0346C49.8096 10.3096 50.5281 9.27531 51.7854 9.27531C52.9219 9.27531 53.6551 10.1446 53.6551 11.4863V17.4166H56.5134V11.1353C56.5134 8.40681 55.0765 6.74481 52.6076 6.74481Z" fill="black"/><path d="M99.4489 13.7893H99.2457C99.2457 13.6033 98.0061 10.2913 97.1934 8.2393L96.6855 6.95605H93.8213L97.8846 17.4508L96.2836 21.4498H99.1279L104.979 6.9598H102.114L101.646 8.05705L100.061 12.0523C99.6145 13.1683 99.4312 13.6858 99.4489 13.7893Z" fill="black"/><path d="M76.9237 6.74463C75.6517 6.74463 74.5593 7.30863 73.8261 8.31513H73.5265L73.4971 8.30013V6.95838H70.8647V17.4164H73.7076V12.0651C73.7076 10.3581 74.5173 9.29013 75.8475 9.29013C77.0893 9.29013 78.0021 10.2351 78.0021 11.7291V17.4156H80.8449V11.1051C80.8449 8.54388 79.199 6.74463 76.9237 6.74463Z" fill="black"/><path d="M20.9415 0.75C14.7994 0.75 9.86377 5.8125 9.86377 12C9.86377 18.2385 14.848 23.25 20.94 23.25C27.0321 23.25 32.0207 18.1875 32.0207 12C32.0207 5.8125 27.0336 0.75 20.9415 0.75ZM20.9415 16.1933C18.6758 16.1933 16.8134 14.301 16.8134 12C16.8134 9.699 18.6758 7.80675 20.9415 7.80675C23.2073 7.80675 25.0704 9.699 25.0704 12C25.0196 14.301 23.2073 16.1933 20.9415 16.1933Z" fill="#333333"/><path d="M9.86375 4.01855V20.3821H5.93881L0.903809 4.01855H9.86375Z" fill="#333333"/></g></symbol><symbol id="iomoney-logo" viewBox="0 0 106 24"><g fill="none"><path d="M93.1269 12.0691C93.1269 9.12539 90.9406 6.74414 87.8526 6.74414C84.8257 6.74414 82.6704 9.03389 82.6704 12.1801C82.6704 15.3421 84.8868 17.6476 88.0668 17.6476C90.0845 17.6476 91.7813 16.7281 92.8361 14.8591L90.6962 13.8466C90.192 14.7811 89.0908 15.3886 88.0668 15.3886C86.7676 15.3886 85.2696 14.3919 85.1776 13.0059H93.0503C93.1005 12.6962 93.1261 12.383 93.1269 12.0691ZM85.2232 11.1691C85.4073 9.76739 86.3547 8.84864 87.8681 8.84864C89.3661 8.84864 90.2833 9.74864 90.4055 11.1691H85.2232Z" fill="black"/><path d="M63.6579 6.7417C60.5545 6.7417 58.3535 9.01645 58.3535 12.2249C58.3535 15.4019 60.5545 17.6452 63.6889 17.6452C66.8379 17.6452 69.0389 15.4019 69.0389 12.2714C69.0389 9.0472 66.7768 6.7417 63.6579 6.7417ZM63.6889 15.2617C62.129 15.2617 61.1662 14.0782 61.1662 12.2399C61.1662 10.3709 62.1445 9.0937 63.6889 9.0937C65.2479 9.0937 66.2262 10.3552 66.2262 12.2399C66.2262 14.0939 65.2634 15.2617 63.6889 15.2617Z" fill="black"/><path d="M52.6076 6.74481C51.3363 6.74481 50.3786 7.18731 49.421 8.28456H49.1066C48.4633 7.29381 47.4136 6.74481 46.2358 6.74481C45.6478 6.73895 45.0668 6.87549 44.5406 7.14319C44.0145 7.41088 43.5583 7.80208 43.2097 8.28456H42.8953L42.8799 8.26956V6.95856H40.249V17.4166H43.0919V12.0346C43.0919 10.2968 43.8103 9.27531 45.0521 9.27531C46.2042 9.27531 46.9521 10.1446 46.9521 11.4706V17.4166H49.8096V12.0346C49.8096 10.3096 50.5281 9.27531 51.7854 9.27531C52.9219 9.27531 53.6551 10.1446 53.6551 11.4863V17.4166H56.5134V11.1353C56.5134 8.40681 55.0765 6.74481 52.6076 6.74481Z" fill="black"/><path d="M99.4489 13.7893H99.2457C99.2457 13.6033 98.0061 10.2913 97.1934 8.2393L96.6855 6.95605H93.8213L97.8846 17.4508L96.2836 21.4498H99.1279L104.979 6.9598H102.114L101.646 8.05705L100.061 12.0523C99.6145 13.1683 99.4312 13.6858 99.4489 13.7893Z" fill="black"/><path d="M76.9237 6.74463C75.6517 6.74463 74.5593 7.30863 73.8261 8.31513H73.5265L73.4971 8.30013V6.95838H70.8647V17.4164H73.7076V12.0651C73.7076 10.3581 74.5173 9.29013 75.8475 9.29013C77.0893 9.29013 78.0021 10.2351 78.0021 11.7291V17.4156H80.8449V11.1051C80.8449 8.54388 79.199 6.74463 76.9237 6.74463Z" fill="black"/><path d="M20.9415 0.75C14.7994 0.75 9.86377 5.8125 9.86377 12C9.86377 18.2385 14.848 23.25 20.94 23.25C27.0321 23.25 32.0207 18.1875 32.0207 12C32.0207 5.8125 27.0336 0.75 20.9415 0.75ZM20.9415 16.1933C18.6758 16.1933 16.8134 14.301 16.8134 12C16.8134 9.699 18.6758 7.80675 20.9415 7.80675C23.2073 7.80675 25.0704 9.699 25.0704 12C25.0196 14.301 23.2073 16.1933 20.9415 16.1933Z" fill="#8B3FFD"/><path d="M9.86375 4.01855V20.3821H5.93881L0.903809 4.01855H9.86375Z" fill="#8B3FFD"/></g></symbol><symbol id="logo-big" viewBox="0 0 750 284"><g fill="none"><path d="M0 282.191H36.0512V229H80.5314V205.752H36.0512V175.99H87.1323V150.481H0V282.191Z" fill="#181818"/><path d="M100.204 282.191H136.255V235.151H160.019C173.424 235.151 184.493 231.111 193.227 223.03C201.96 214.949 206.327 204.576 206.327 191.911C206.327 179.549 202.197 169.568 193.937 161.969C185.745 154.31 174.575 150.481 160.425 150.481H100.204V282.191ZM136.255 214.346V173.186H151.793C158.495 173.246 163.167 175.206 165.807 179.066C168.515 182.865 169.869 187.78 169.869 193.811C169.869 199.842 168.515 204.787 165.807 208.647C163.167 212.446 158.495 214.346 151.793 214.346H136.255ZM173.119 282.191H212.319L177.994 216.607L146.411 225.02L173.119 282.191Z" fill="#181818"/><path d="M223.258 282.191H259.817V150.481H223.258V282.191Z" fill="#181818"/><path d="M280.911 282.191H377.488V257.495H315.439V226.648H367.028V204.214H315.439V175.99H375.965V150.481H280.911V282.191Z" fill="#181818"/><path d="M390.052 282.191H420.62V209.642C420.62 207.531 420.62 205.541 420.62 203.671C420.62 201.741 420.518 199.751 420.315 197.701H420.924C421.466 199.631 422.143 201.651 422.955 203.762C423.768 205.872 424.614 207.832 425.494 209.642L463.678 282.191H498.714V150.481H468.146V221.944C468.146 223.995 468.112 226.136 468.045 228.367C468.045 230.598 468.112 232.739 468.248 234.79H467.74C467.198 232.86 466.488 230.749 465.607 228.457C464.795 226.166 463.949 224.055 463.069 222.125L426.205 150.481H390.052V282.191Z" fill="#181818"/><path d="M519.097 282.191H571.092C590.117 282.191 604.808 276.643 615.166 265.546C625.525 254.45 630.704 239.132 630.704 219.592V212.536C630.704 192.937 625.491 177.709 615.065 166.854C604.706 155.938 590.049 150.481 571.092 150.481H519.097V282.191ZM554.133 259.938V173.548H567.335C575.798 173.608 582.399 176.443 587.138 182.051C591.945 187.66 594.348 196.495 594.348 208.556V224.296C594.348 236.177 592.012 245.102 587.341 251.072C582.737 256.983 576.068 259.938 567.335 259.938H554.133Z" fill="#181818"/><path d="M643.877 247.183C643.877 259.304 648.921 268.471 659.009 274.683C669.096 280.894 681.96 284 697.599 284C713.238 284 725.864 280.502 735.478 273.507C745.159 266.451 750 256.771 750 244.469C750 233.433 746.717 224.537 740.149 217.783C733.582 210.968 722.987 205.541 708.363 201.5C697.26 198.364 689.61 195.56 685.412 193.087C681.283 190.615 679.218 187.539 679.218 183.86C679.218 179.941 680.572 176.744 683.28 174.272C686.056 171.799 690.558 170.563 696.786 170.563C702.541 170.563 706.942 171.98 709.988 174.814C713.103 177.589 714.66 181.509 714.66 186.574V190.012H746.852V184.041C746.852 172.704 742.147 163.989 732.736 157.898C723.393 151.807 711.173 148.762 696.075 148.762C680.775 148.762 668.555 152.139 659.415 158.893C650.275 165.648 645.705 174.875 645.705 186.574C645.705 196.887 649.124 205.39 655.962 212.084C662.8 218.778 673.869 224.387 689.17 228.91C699.664 232.046 706.84 234.94 710.699 237.594C714.558 240.247 716.488 243.534 716.488 247.454C716.488 252.218 714.795 255.987 711.41 258.762C708.092 261.475 703.32 262.832 697.091 262.832C690.592 262.832 685.514 261.325 681.858 258.309C678.27 255.294 676.51 250.65 676.577 244.378V239.584H643.877V247.183Z" fill="#181818"/><path d="M0 135.238H35.972L46.5103 80.6227H90.8926L95.4525 56.7517H51.0701L56.9472 26.1931H107.916L112.982 0H26.0417L0 135.238Z" fill="#181818"/><path d="M100.693 135.238H137.172L163.214 0H126.735L100.693 135.238Z" fill="#181818"/><path d="M171.393 26.1931H209.999L189.024 135.238H225.503L246.478 26.1931H284.882L289.948 0H176.459L171.393 26.1931Z" fill="#181818"/></g></symbol><symbol id="logo" viewBox="0 0 187 70"><g fill="none"><path d="M0 69.5541H8.98878V56.4437H20.0792V50.7135H8.98878V43.3779H21.725V37.0903H0V69.5541Z" fill="#181818"/><path d="M24.9842 69.5541H33.973V57.9599H39.898C43.2403 57.9599 46.0003 56.964 48.1778 54.9721C50.3554 52.9803 51.4442 50.4236 51.4442 47.3021C51.4442 44.2549 50.4145 41.7949 48.3551 39.922C46.3125 38.0342 43.5273 37.0903 39.9993 37.0903H24.9842V69.5541ZM33.973 52.8317V42.6867H37.8471C39.5182 42.7016 40.683 43.1847 41.3413 44.136C42.0165 45.0725 42.3541 46.2839 42.3541 47.7703C42.3541 49.2568 42.0165 50.4757 41.3413 51.427C40.683 52.3634 39.5182 52.8317 37.8471 52.8317H33.973ZM43.1644 69.5541H52.9381L44.3797 53.3891L36.5051 55.4627L43.1644 69.5541Z" fill="#181818"/><path d="M55.6656 69.5541H64.781V37.0903H55.6656V69.5541Z" fill="#181818"/><path d="M70.0406 69.5541H94.1204V63.4671H78.6495V55.864H91.5123V50.3344H78.6495V43.3779H93.7406V37.0903H70.0406V69.5541Z" fill="#181818"/><path d="M97.253 69.5541H104.874V51.6722C104.874 51.152 104.874 50.6615 104.874 50.2007C104.874 49.725 104.849 49.2345 104.799 48.7291H104.95C105.085 49.2048 105.254 49.7027 105.457 50.223C105.659 50.7432 105.87 51.2263 106.09 51.6722L115.61 69.5541H124.346V37.0903H116.724V54.7046C116.724 55.21 116.716 55.7376 116.699 56.2876C116.699 56.8376 116.716 57.3653 116.75 57.8707H116.623C116.488 57.395 116.311 56.8748 116.091 56.3099C115.889 55.7451 115.678 55.2248 115.458 54.7492L106.267 37.0903H97.253V69.5541Z" fill="#181818"/><path d="M129.428 69.5541H142.392C147.136 69.5541 150.799 68.1865 153.381 65.4515C155.964 62.7165 157.256 58.9409 157.256 54.1249V52.3857C157.256 47.5548 155.956 43.8016 153.356 41.126C150.773 38.4355 147.119 37.0903 142.392 37.0903H129.428V69.5541ZM138.164 64.0691V42.7759H141.456C143.566 42.7908 145.211 43.4894 146.393 44.8718C147.592 46.2542 148.191 48.4318 148.191 51.4047V55.2843C148.191 58.2126 147.608 60.4125 146.444 61.8841C145.296 63.3408 143.633 64.0691 141.456 64.0691H138.164Z" fill="#181818"/><path d="M160.54 60.9253C160.54 63.913 161.798 66.1724 164.313 67.7035C166.828 69.2345 170.035 70 173.935 70C177.834 70 180.982 69.1379 183.379 67.4136C185.793 65.6745 187 63.2887 187 60.2564C187 57.5362 186.181 55.3437 184.544 53.6789C182.907 51.9993 180.265 50.6615 176.619 49.6656C173.85 48.8926 171.943 48.2014 170.896 47.592C169.866 46.9825 169.352 46.2245 169.352 45.3177C169.352 44.3515 169.689 43.5637 170.364 42.9543C171.057 42.3448 172.179 42.0401 173.732 42.0401C175.167 42.0401 176.264 42.3894 177.024 43.0881C177.8 43.7718 178.188 44.738 178.188 45.9866V46.8339H186.215V45.3623C186.215 42.5678 185.042 40.4199 182.696 38.9186C180.366 37.4173 177.319 36.6667 173.555 36.6667C169.74 36.6667 166.693 37.4991 164.414 39.1639C162.135 40.8287 160.996 43.1029 160.996 45.9866C160.996 48.5284 161.848 50.6243 163.553 52.2742C165.258 53.9242 168.018 55.3066 171.833 56.4214C174.449 57.1944 176.239 57.9078 177.201 58.5619C178.163 59.2159 178.644 60.026 178.644 60.9922C178.644 62.1665 178.222 63.0955 177.378 63.7793C176.551 64.4482 175.361 64.7826 173.808 64.7826C172.188 64.7826 170.922 64.411 170.01 63.6678C169.115 62.9246 168.676 61.78 168.693 60.2341V59.0524H160.54V60.9253Z" fill="#181818"/><path d="M0 33.3333H8.96902L11.5966 19.8718H22.6626L23.7995 13.9881H12.7335L14.1988 6.45605H26.9071L28.1703 0H6.49306L0 33.3333Z" fill="#181818"/><path d="M25.1062 33.3333H34.2015L40.6946 0H31.5992L25.1062 33.3333Z" fill="#181818"/><path d="M42.734 6.45605H52.3599L47.13 33.3333H56.2254L61.4552 6.45605H71.0306L72.2938 0H43.9972L42.734 6.45605Z" fill="#181818"/></g></symbol><symbol id="logotype" viewBox="0 0 74 74"><g fill="none"><path d="M0 37C20.4322 37 37 53.5678 37 74V37H74C53.5678 37 37 20.4322 37 0C37 20.4322 20.4322 37 0 37Z" fill="#181818"/><path d="M37 74C37 53.5678 20.4322 37 0 37V74H37Z" fill="#C5EC2A"/><path d="M37 74C57.4322 74 74 57.4322 74 37H37V74Z" fill="#C5EC2A"/><path d="M37 0C37 20.4322 20.4322 37 0 37V0H37Z" fill="#C5EC2A"/><path d="M74 37C53.5678 37 37 20.4322 37 0H74V37Z" fill="#C5EC2A"/></g></symbol><symbol id="mir-logo-disabled" viewBox="0 0 66 20"><g fill="none"><path fill-rule="evenodd" clip-rule="evenodd" d="M17.7849 3.80523e-07V0.008734C17.7768 0.008734 15.2069 3.33161e-07 14.5216 2.62882C13.8934 5.0393 12.1231 11.6943 12.0742 11.8777H11.5847C11.5847 11.8777 9.77355 5.07424 9.13721 2.62009C8.45192 -0.00873332 5.87392 3.80523e-07 5.87392 3.80523e-07H0V20H5.87392V8.12227H6.36341L9.78986 20H13.869L17.2954 8.131H17.7849V20H23.6588V3.80523e-07H17.7849Z" fill="#333333"/><path fill-rule="evenodd" clip-rule="evenodd" d="M39.241 0C39.241 0 37.5197 0.165939 36.712 2.09607L32.5513 11.8777H32.0618V0H26.1879V20H31.7355C31.7355 20 33.5384 19.8253 34.3461 17.9039L38.4252 8.12227H38.9147V20H44.7886V0H39.241Z" fill="#333333"/><path fill-rule="evenodd" clip-rule="evenodd" d="M47.3993 9.08297V20H53.2732V13.6245H59.6366C62.4104 13.6245 64.76 11.7293 65.6329 9.08297H47.3993Z" fill="#333333"/><path fill-rule="evenodd" clip-rule="evenodd" d="M59.6366 0H46.5753C47.2279 3.80786 49.8957 6.86463 53.3466 7.86026C54.1298 8.08734 54.9538 8.20961 55.8022 8.20961H65.8695C65.9592 7.75546 66 7.29258 66 6.81223C66 3.04803 63.1528 0 59.6366 0Z" fill="#333333"/></g></symbol><symbol id="mir-logo" viewBox="0 0 66 20"><g fill="none"><path fill-rule="evenodd" clip-rule="evenodd" d="M17.7849 3.80523e-07V0.008734C17.7768 0.008734 15.2069 3.33161e-07 14.5216 2.62882C13.8934 5.0393 12.1231 11.6943 12.0742 11.8777H11.5847C11.5847 11.8777 9.77355 5.07424 9.13721 2.62009C8.45192 -0.00873332 5.87392 3.80523e-07 5.87392 3.80523e-07H0V20H5.87392V8.12227H6.36341L9.78986 20H13.869L17.2954 8.131H17.7849V20H23.6588V3.80523e-07H17.7849Z" fill="#4DB45E"/><path fill-rule="evenodd" clip-rule="evenodd" d="M39.241 0C39.241 0 37.5197 0.165939 36.712 2.09607L32.5513 11.8777H32.0618V0H26.1879V20H31.7355C31.7355 20 33.5384 19.8253 34.3461 17.9039L38.4252 8.12227H38.9147V20H44.7886V0H39.241Z" fill="#4DB45E"/><path fill-rule="evenodd" clip-rule="evenodd" d="M47.3993 9.08297V20H53.2732V13.6245H59.6366C62.4104 13.6245 64.76 11.7293 65.6329 9.08297H47.3993Z" fill="#4DB45E"/><path fill-rule="evenodd" clip-rule="evenodd" d="M59.6366 0H46.5753C47.2279 3.80786 49.8957 6.86463 53.3466 7.86026C54.1298 8.08734 54.9538 8.20961 55.8022 8.20961H65.8695C65.9592 7.75546 66 7.29258 66 6.81223C66 3.04803 63.1528 0 59.6366 0Z" fill="url(#paint0_linear_124_818)"/></g></symbol><symbol id="sort-down" viewBox="0 0 18 12"><g fill="none"><path d="M1 11H17M1 6H13M1 1H7" stroke="currentColor" stroke-linecap="round"/></g></symbol><symbol id="sort-up" viewBox="0 0 18 12"><g fill="none"><path d="M1 1H17H1Z" fill="#8E8E8E"/><path d="M1 6H13H1Z" fill="#8E8E8E"/><path d="M1 11H7H1Z" fill="#8E8E8E"/><path d="M1 1H17M1 6H13M1 11H7" stroke="currentColor" stroke-linecap="round"/></g></symbol><symbol id="visa-logo-disabled" viewBox="0 0 58 20"><g fill="none"><path fill-rule="evenodd" clip-rule="evenodd" d="M14.5006 19.8442H9.48107L5.71703 4.32879C5.53838 3.61508 5.15904 2.98412 4.60104 2.68674C3.20849 1.93942 1.67399 1.34466 0 1.0447V0.447351H8.08608C9.20207 0.447351 10.0391 1.34466 10.1786 2.38678L12.1316 13.5786L17.1487 0.447351H22.0287L14.5006 19.8442ZM24.8187 19.8442H20.0782L23.9817 0.447351H28.7222L24.8187 19.8442ZM34.8553 5.82087C34.9948 4.77617 35.8318 4.17882 36.8083 4.17882C38.3428 4.02884 40.0144 4.32881 41.4094 5.07355L42.2464 0.897309C40.8514 0.299965 39.3169 0 37.9243 0C33.3233 0 29.9753 2.68676 29.9753 6.41563C29.9753 9.25237 32.3468 10.7419 34.0208 11.6392C35.8318 12.5339 36.5293 13.1312 36.3898 14.026C36.3898 15.368 34.9948 15.9654 33.6023 15.9654C31.9283 15.9654 30.2543 15.518 28.7222 14.7707L27.8852 18.9495C29.5592 19.6943 31.3703 19.9942 33.0443 19.9942C38.2033 20.1416 41.4094 17.4574 41.4094 13.4286C41.4094 8.35506 34.8553 8.05768 34.8553 5.82087ZM58 19.8442L54.236 0.447351H50.1929C49.3559 0.447351 48.5189 1.0447 48.2399 1.93942L41.2698 19.8442H46.1499L47.1239 17.0101H53.12L53.678 19.8442H58ZM50.8904 5.6709L52.283 12.9813H48.3794L50.8904 5.6709Z" fill="#333333"/></g></symbol><symbol id="visa-logo" viewBox="0 0 58 20"><g fill="none"><path fill-rule="evenodd" clip-rule="evenodd" d="M14.5006 19.8442H9.48107L5.71703 4.32879C5.53838 3.61508 5.15904 2.98412 4.60104 2.68674C3.20849 1.93942 1.67399 1.34466 0 1.0447V0.447351H8.08608C9.20207 0.447351 10.0391 1.34466 10.1786 2.38678L12.1316 13.5786L17.1487 0.447351H22.0287L14.5006 19.8442ZM24.8187 19.8442H20.0782L23.9817 0.447351H28.7222L24.8187 19.8442ZM34.8553 5.82087C34.9948 4.77617 35.8318 4.17882 36.8083 4.17882C38.3428 4.02884 40.0144 4.32881 41.4094 5.07355L42.2464 0.897309C40.8514 0.299965 39.3169 0 37.9243 0C33.3233 0 29.9753 2.68676 29.9753 6.41563C29.9753 9.25237 32.3468 10.7419 34.0208 11.6392C35.8318 12.5339 36.5293 13.1312 36.3898 14.026C36.3898 15.368 34.9948 15.9654 33.6023 15.9654C31.9283 15.9654 30.2543 15.518 28.7222 14.7707L27.8852 18.9495C29.5592 19.6943 31.3703 19.9942 33.0443 19.9942C38.2033 20.1416 41.4094 17.4574 41.4094 13.4286C41.4094 8.35506 34.8553 8.05768 34.8553 5.82087ZM58 19.8442L54.236 0.447351H50.1929C49.3559 0.447351 48.5189 1.0447 48.2399 1.93942L41.2698 19.8442H46.1499L47.1239 17.0101H53.12L53.678 19.8442H58ZM50.8904 5.6709L52.283 12.9813H48.3794L50.8904 5.6709Z" fill="#172B85"/></g></symbol></svg>